<svg id="old_spice_logo" xmlns="http://www.w3.org/2000/svg" width="204.26" height="90.74" viewBox="0 0 204.26 90.74">
  <defs>
    <style>
      .cls-1 {
        fill: #fff;
      }
    </style>
  </defs>
  <g id="words">
    <path id="c" class="cls-1" d="M78,54.33c-2.17,3.59-4.64,9.41-18.42,9.78C41.26,64.6,31,51.47,31,33.56c0-17.18,9.58-35,28-32.82C78,3,80,28,80,35h4c-1.14-.57-5.73,0-7,0-2,0,4-25-20.09-23.5-12.41.77-18,8.81-18,22.54s4.76,26.3,21,26.3c10.37,0,12.78-1.22,17.29-6Z" transform="translate(-31 -0.2)"/>
    <path id="l" class="cls-1" d="M67.56,53.41h-.14Q60.65,52.23,60.66,47V20.47a1.87,1.87,0,0,0-2.1-2.14L58.18,18V16.91l.72-.72h8.52l.69.72V48.09l1.07,1.07h1.07a7.19,7.19,0,0,0,2.44-1.6l-.62,2.49A4.45,4.45,0,0,1,67.56,53.41Z" transform="translate(-31 -0.2)"/>
    <path id="d" class="cls-1" d="M92.63,16.47l1.1,1.1V45.43a4,4,0,0,0,3.83,4.38v1.11c-.71,1.65-1.44,2.56-2.17,2.72H91.56q-3.32-2.13-3.31-3.83c-2.19,2.92-4.55,4.38-7.11,4.38q-9.83,0-9.82-10.38,0-9.3,4.93-12a7.75,7.75,0,0,1,7.15,0l3.18,1.59a.8.8,0,0,0,1.15-.71V22.47A6.2,6.2,0,0,0,85,17l.55-.55ZM77.32,41.61v3.82a5.29,5.29,0,0,0,5.48,3.83h.55c2.55,0,3.83-1.27,3.83-3.83V40.54q0-3.76-4.93-4.38Q77.32,37.84,77.32,41.61Z" transform="translate(-31 -0.2)"/>
    <path id="s" class="cls-1" d="M132.71,8.72h22.34a1,1,0,0,1,.94,1.46l-3.84,8.29a1,1,0,0,1-1.22.56l-8.84-2.53a1.26,1.26,0,0,0-.33,0c-3.63.07-5.45,2.18-5.45,6.35q0,4.42,13,12.08a5.56,5.56,0,0,1,1.86,1.78,12,12,0,0,1,2,6.55v.7q-.91,6.75-8.15,12.45a1.08,1.08,0,0,1-.65.22H120.57a1,1,0,0,1-1-1.15l1.28-10.81h.7q4.64,5.55,13.19,5.61a1.19,1.19,0,0,0,.37-.06q7.56-2.55,7.55-8.37,0-5.07-16.64-16a1,1,0,0,1-.39-.46,20.18,20.18,0,0,1-2-8.15Q123.64,9.86,132.71,8.72Z" transform="translate(-31 -0.2)"/>
    <path id="p" class="cls-1" d="M158.78,22.68A13.06,13.06,0,0,1,164.22,26c2.63-2.18,4.81-3.27,6.56-3.27q8.68,0,10.38,11.44a12.93,12.93,0,0,1-6,11.49H168.6l-3.82-3.28V56c1.44,0,2.17.37,2.17,1.1l-.55.55h-6.8a.72.72,0,0,1-.52-.21l-.65-.68a.71.71,0,0,1-.21-.5V29.78c0-1.89-.55-3-1.65-3.28L154.4,27V26Q155.92,22.68,158.78,22.68Zm6,7.1v9.83c.59,1.45,1.87,2.17,3.82,2.17q4.14,0,4.9-5.45V31.4c-1.26-2.55-2.9-3.83-4.9-3.83C166.05,28.45,164.78,29.18,164.78,29.78Z" transform="translate(-31 -0.2)"/>
    <path id="i" class="cls-1" d="M190.78,43.61c1.52.23,6.48-.76,6.48-.07l-.75.75-3.27,1.56a5.28,5.28,0,0,1-2.28.52h-7.08l-.9-.93V26.68c-1.21,0-1.82-.46-1.82-1.38v-.49l.93-.93h7.57A.43.43,0,0,1,190,24l.61.6a.68.68,0,0,1,.19.46ZM187,15q2.49,0,3.1,3.48,0,3.13-3.1,3.14h-.38c-2.09-.26-3.13-1.3-3.13-3.14Q184.15,15,187,15Z" transform="translate(-31 -0.2)"/>
    <path id="c-2" data-name="c" class="cls-1" d="M200,23.64h11.62l1.43,0-.26.55a15.74,15.74,0,0,1-4.65,6.38l-3.18-1a1.87,1.87,0,0,0-.62-.1h-.76a2.85,2.85,0,0,0-1.31.29q-4.22,2.13-4.55,7.46A4.06,4.06,0,0,0,198,39c1.3,3.32,3.33,5,6.07,5h.23a10.3,10.3,0,0,0,5-1.3l4.6-2.56.43.58-2.71,2.69c-2.36,2.39-4.17,3.48-8.72,3.48q-7.86,0-9.87-11V33.5Q193.05,25.69,200,23.64Z" transform="translate(-31 -0.2)"/>
    <path id="e" class="cls-1" d="M231.57,33.26A11.93,11.93,0,0,1,221,38.92c1.41,2.6,3.29,3.9,5.66,3.9H227c2.62,0,5.8-.37,6.6-2.4l.13-.43c.48,0,.72.36.72,1.07a10.47,10.47,0,0,1-9.93,6q-7,0-10.54-6.93a11,11,0,0,1-1.15-5v-.83q0-5.44,6.56-9.48a2.21,2.21,0,0,1,.34-.18,10.28,10.28,0,0,1,4.44-1h.6a11,11,0,0,1,1.81.21,9.54,9.54,0,0,1,5.24,2.72c.12.12.32.45.53.7a1.44,1.44,0,0,1,.22.42l.13.29.18.4a6,6,0,0,1,.18,1v.3l0,.41-.12.5A7.1,7.1,0,0,1,231.57,33.26Zm-11,2.49H221a6.46,6.46,0,0,0,6.26-4.14,5.24,5.24,0,0,0,.47-2.24h0a1.36,1.36,0,0,0-1.34-1.24,4.47,4.47,0,0,0-2.62.64Q220.57,30.75,220.57,35.75Z" transform="translate(-31 -0.2)"/>
  </g>
  <path id="leaf" class="cls-1" d="M199,6.44A3,3,0,0,0,198,4,1.79,1.79,0,0,1,199.81.93,2.87,2.87,0,0,0,202.4.55a1.26,1.26,0,0,1,1.4-.22,1.31,1.31,0,0,1,.65,1.33c0,.51,0,1,0,1.51a.91.91,0,0,0,1.82.07c.05-.57,0-1.15,0-1.72a1.16,1.16,0,0,1,1.91-1,3.14,3.14,0,0,0,2.92.4,1.74,1.74,0,0,1,2.11.78,1.68,1.68,0,0,1-.35,2.2,3.14,3.14,0,0,0-1.14,2.72,1.19,1.19,0,0,1-1.89,1.13c-.48-.26-.94-.55-1.43-.82a.85.85,0,0,0-1.28.34.84.84,0,0,0,.35,1.22c.46.3,1,.55,1.42.83a1.18,1.18,0,0,1-.06,2.22,3,3,0,0,0-1.72,2.22,1.79,1.79,0,0,1-3.54-.05A2.89,2.89,0,0,0,202,11.54a1.25,1.25,0,0,1-.87-1.11,1.29,1.29,0,0,1,.84-1.22c.38-.2.75-.42,1.12-.64.65-.39.84-.84.57-1.33s-.8-.64-1.47-.27l-1.06.61a1.38,1.38,0,0,1-1.54.17A1.17,1.17,0,0,1,199,6.44Z" transform="translate(-31 -0.2)"/>
  <path id="wave" class="cls-1" d="M234.28,40.35a22.54,22.54,0,0,1,1,4.91c.69,13.7-15.93,26.41-29.39,31.54-9.9,3.77-18.82,3.71-24.49,3.68-6.32,0-11.48-.9-21.8-2.62-10.54-1.75-13-2.76-23.14-4a76.6,76.6,0,0,0-16.65-.72,49.66,49.66,0,0,0-11.51,2,50.43,50.43,0,0,0-15.43,8.06,63.63,63.63,0,0,0-9,7.81L59.53,77.61l10.24-6.37c18.3-11,33.9-13.1,33.9-13.1,17.47-2.6,53.59,7.54,54.35,7.77,12.51,3.8,23.7,6.1,31.48,6.42A73.91,73.91,0,0,0,201,71.88c1.19-.19,7.42-1.67,7.68-1.77a55.79,55.79,0,0,0,16.49-10.5c3.14-2.87,5.22-5.29,6.47-7.88.54-1.12,1.09-2.36,1.53-3.49a14.59,14.59,0,0,0,1-4.79Z" transform="translate(-31 -0.2)"/>
</svg>
