<svg id="old_spice_logo" xmlns="http://www.w3.org/2000/svg" viewBox="0 0 191.26 95.38">
  <defs>
    <style>
      .cls-1 {
        fill: #f5f7f5;
      }
    </style>
  </defs>
  <g id="words">
    <path id="c" class="cls-1" d="M99.38,61.45C97,65.32,94.3,71.59,79.22,72,59.23,72.52,48,58.37,48,39.09c0-18.5,10.49-37.7,30.64-35.34,20.79,2.44,23,29.35,23,36.89H106c-1.24-.61-6.27,0-7.66,0-2.19,0,1.71-24.53-22-25.3C66,15,56.62,24.83,56.62,39.61s5.21,28.31,23,28.31C91,67.92,93.07,64.16,98,59Z" transform="translate(-48 -3.56)"/>
    <path id="l" class="cls-1" d="M88.56,62.41h-.14Q81.66,61.23,81.66,56V29.47a1.87,1.87,0,0,0-2.1-2.14L79.18,27V25.91l.72-.72h8.52l.69.72V57.09l1.07,1.07h1.07a7.19,7.19,0,0,0,2.44-1.6l-.62,2.49A4.45,4.45,0,0,1,88.56,62.41Z" transform="translate(-48 -3.56)"/>
    <path id="d" class="cls-1" d="M114.63,24.47l1.1,1.1V53.43a4,4,0,0,0,3.83,4.38v1.11c-.71,1.65-1.44,2.56-2.17,2.72h-3.83q-3.32-2.13-3.31-3.83c-2.19,2.92-4.55,4.38-7.11,4.38q-9.83,0-9.82-10.38,0-9.3,4.93-12a7.75,7.75,0,0,1,7.15,0l3.18,1.59a.8.8,0,0,0,1.15-.71V30.47A6.2,6.2,0,0,0,107,25l.55-.55ZM99.32,49.61v3.82a5.29,5.29,0,0,0,5.48,3.83h.55c2.55,0,3.83-1.27,3.83-3.83V48.54q0-3.76-4.93-4.38Q99.32,45.84,99.32,49.61Z" transform="translate(-48 -3.56)"/>
    <path id="s" class="cls-1" d="M138.6,20.75h20.45a.94.94,0,0,1,.86,1.34l-3.51,7.59a1,1,0,0,1-1.12.51l-8.1-2.32a.92.92,0,0,0-.29,0c-3.33.06-5,2-5,5.81q0,4.05,11.92,11.06a5,5,0,0,1,1.71,1.63,11.05,11.05,0,0,1,1.82,6V53q-.84,6.18-7.46,11.4a1,1,0,0,1-.6.2H127.48a.94.94,0,0,1-.94-1l1.17-9.9h.64q4.25,5.09,12.08,5.14a1,1,0,0,0,.34-.06q6.91-2.33,6.91-7.67,0-4.64-15.24-14.67a1,1,0,0,1-.35-.42,18.47,18.47,0,0,1-1.8-7.47Q130.29,21.81,138.6,20.75Z" transform="translate(-48 -3.56)"/>
    <path id="p" class="cls-1" d="M162.78,30.68A13.06,13.06,0,0,1,168.22,34c2.63-2.18,4.81-3.27,6.56-3.27q8.68,0,10.38,11.44a12.93,12.93,0,0,1-6,11.49H172.6l-3.82-3.28V64c1.44,0,2.17.37,2.17,1.1l-.55.55h-7.11l-1.07-1.1V37.78c0-1.89-.55-3-1.65-3.28L158.4,35V34Q159.92,30.68,162.78,30.68Zm6,7.1v9.83c.59,1.45,1.87,2.17,3.82,2.17q4.14,0,4.9-5.45V39.4c-1.26-2.55-2.9-3.83-4.9-3.83C170.05,36.45,168.78,37.18,168.78,37.78Z" transform="translate(-48 -3.56)"/>
    <path id="i" class="cls-1" d="M194.78,51.61c1.52.23,6.48-.76,6.48-.07l-.75.75-3.27,1.56a5.28,5.28,0,0,1-2.28.52h-7.08l-.9-.93V34.68c-1.21,0-1.82-.46-1.82-1.38v-.49l.93-.93h7.76l.93.93ZM191,23q2.49,0,3.1,3.48,0,3.13-3.1,3.14h-.38c-2.09-.26-3.13-1.3-3.13-3.14Q188.15,23,191,23Z" transform="translate(-48 -3.56)"/>
    <path id="c-2" data-name="c" class="cls-1" d="M204,31.64h11.62l1.43,0-.26.55a15.74,15.74,0,0,1-4.65,6.38l-3.48-1.14h-1.76q-5.22,2.2-5.21,8.69Q203.65,52,208.09,52h.23a10.3,10.3,0,0,0,5-1.3l4.6-2.56.43.58-2.71,2.69c-2.36,2.39-4.17,3.48-8.72,3.48q-7.86,0-9.87-11V41.5Q197.05,33.69,204,31.64Z" transform="translate(-48 -3.56)"/>
    <path id="e" class="cls-1" d="M235.57,41.26A11.93,11.93,0,0,1,225,46.92c1.41,2.6,3.29,3.9,5.66,3.9H231c2.62,0,5.8-.37,6.6-2.4l.13-.43c.48,0,.72.36.72,1.07a10.47,10.47,0,0,1-9.93,6q-7,0-10.54-6.93a11,11,0,0,1-1.15-5v-.83q0-5.44,6.56-9.48a2.21,2.21,0,0,1,.34-.18,10.28,10.28,0,0,1,4.44-1h.6a11,11,0,0,1,1.81.21,9.54,9.54,0,0,1,5.24,2.72c.12.12.32.45.53.7a1.44,1.44,0,0,1,.22.42l.13.29.18.4a6,6,0,0,1,.18,1v.3l0,.41-.12.5A7.1,7.1,0,0,1,235.57,41.26Zm-11,2.49H225a6.46,6.46,0,0,0,6.26-4.14,5.24,5.24,0,0,0,.47-2.24h0a1.36,1.36,0,0,0-1.34-1.24,4.47,4.47,0,0,0-2.62.64Q224.57,38.75,224.57,43.75Z" transform="translate(-48 -3.56)"/>
  </g>
  <path id="leaf" class="cls-1" d="M203,14.44A3,3,0,0,0,202,12a1.79,1.79,0,0,1,1.78-3.09,2.87,2.87,0,0,0,2.59-.38,1.26,1.26,0,0,1,1.4-.22,1.31,1.31,0,0,1,.65,1.33c0,.51,0,1,0,1.51a.91.91,0,0,0,1.82.07c.05-.57,0-1.15,0-1.72a1.16,1.16,0,0,1,1.91-1,3.14,3.14,0,0,0,2.92.4,1.74,1.74,0,0,1,2.11.78,1.68,1.68,0,0,1-.35,2.2,3.14,3.14,0,0,0-1.14,2.72,1.19,1.19,0,0,1-1.89,1.13c-.48-.26-.94-.55-1.43-.82a.85.85,0,0,0-1.28.34.84.84,0,0,0,.35,1.22c.46.3,1,.55,1.42.83a1.18,1.18,0,0,1-.06,2.22,3,3,0,0,0-1.72,2.22,1.79,1.79,0,0,1-3.54-.05A2.89,2.89,0,0,0,206,19.54a1.25,1.25,0,0,1-.87-1.11,1.29,1.29,0,0,1,.84-1.22c.38-.2.75-.42,1.12-.64.65-.39.84-.84.57-1.33s-.8-.64-1.47-.27l-1.06.61a1.38,1.38,0,0,1-1.54.17A1.17,1.17,0,0,1,203,14.44Z" transform="translate(-48 -3.56)"/>
  <path id="wave" class="cls-1" d="M238.28,48.35a22.54,22.54,0,0,1,1,4.91c.69,13.7-15.93,26.41-29.39,31.54-9.9,3.77-18.82,3.71-24.49,3.68-6.32,0-11.48-.9-21.8-2.62-10.54-1.75-13-2.76-23.14-4a76.6,76.6,0,0,0-16.65-.72,49.66,49.66,0,0,0-11.51,2,50.43,50.43,0,0,0-15.43,8.06,63.63,63.63,0,0,0-9,7.81L63.53,85.61l10.24-6.37c18.3-11,33.9-13.1,33.9-13.1,17.47-2.6,53.59,7.54,54.35,7.77,12.51,3.8,23.7,6.1,31.48,6.42A73.91,73.91,0,0,0,205,79.88c1.19-.19,7.42-1.67,7.68-1.77a55.79,55.79,0,0,0,16.49-10.5c3.14-2.87,5.22-5.29,6.47-7.88.54-1.12,1.09-2.36,1.53-3.49a14.59,14.59,0,0,0,1-4.79Z" transform="translate(-48 -3.56)"/>
</svg>
