<svg id="old_spice_logo" xmlns="http://www.w3.org/2000/svg" viewBox="0 0 128 63.34">
  <defs>
    <style>
      .cls-1 {
        fill: #f5f7f5;
      }
    </style>
  </defs>
  <g id="words">
    <path id="c" class="cls-1" d="M34.58,38.84c-1.55,2.53-3.32,6.62-13.17,6.88C8.34,46.07,1,36.83,1,24.22,1,12.13,7.86-.41,21,1.13c13.59,1.59,15,19.18,15,24.11h2.86c-.82-.4-4.1,0-5,0-1.43,0,1.12-16-14.37-16.54-6.77-.22-12.9,6.2-12.9,15.86S10,43.07,21.68,43.07c7.41,0,8.77-2.46,12-5.83Z"/>
    <path id="l" class="cls-1" d="M27.51,39.46h-.09Q23,38.7,23,35.29V17.93a1.22,1.22,0,0,0-1.38-1.39l-.24-.23v-.7l.47-.47h5.57l.45.47V36l.7.7h.69a4.63,4.63,0,0,0,1.6-1l-.41,1.63A2.88,2.88,0,0,1,27.51,39.46Z"/>
    <path id="d" class="cls-1" d="M44.55,14.67l.72.72V33.6a2.6,2.6,0,0,0,2.5,2.86v.72c-.47,1.08-.94,1.68-1.42,1.78h-2.5c-1.45-.93-2.17-1.76-2.17-2.5Q39.55,39.32,37,39.32q-6.42,0-6.42-6.78c0-4.06,1.07-6.67,3.22-7.86a5.07,5.07,0,0,1,4.67,0l2.09,1a.52.52,0,0,0,.75-.46V18.59A4.06,4.06,0,0,0,39.54,15l.36-.36Zm-10,16.43v2.5a3.46,3.46,0,0,0,3.58,2.5h.36A2.21,2.21,0,0,0,41,33.6V30.4q0-2.46-3.22-2.86Q34.53,28.64,34.54,31.1Z"/>
    <path id="s" class="cls-1" d="M60.21,12.24H73.58a.61.61,0,0,1,.56.87l-2.3,5a.61.61,0,0,1-.73.34l-5.29-1.52a.63.63,0,0,0-.19,0c-2.18,0-3.26,1.31-3.26,3.8q0,2.65,7.79,7.23A3.28,3.28,0,0,1,71.28,29a7.21,7.21,0,0,1,1.19,3.91v.43q-.56,4-4.88,7.45a.68.68,0,0,1-.39.13H52.94a.62.62,0,0,1-.61-.69l.77-6.47h.42a9.78,9.78,0,0,0,7.89,3.36.57.57,0,0,0,.22,0q4.51-1.51,4.52-5,0-3-10-9.59a.67.67,0,0,1-.23-.27,12,12,0,0,1-1.18-4.88Q54.78,12.93,60.21,12.24Z"/>
    <path id="p" class="cls-1" d="M76,18.73a8.45,8.45,0,0,1,3.56,2.14c1.72-1.43,3.14-2.14,4.29-2.14q5.67,0,6.78,7.48a8.44,8.44,0,0,1-3.92,7.5H82.44l-2.5-2.14V40.5q1.41,0,1.41.72l-.36.36H76.35l-.7-.72V23.37c0-1.23-.36-1.95-1.08-2.14l-1.42.33v-.69A3.11,3.11,0,0,1,76,18.73Zm3.93,4.64v6.42a2.4,2.4,0,0,0,2.5,1.42q2.7,0,3.2-3.56V24.43c-.83-1.67-1.9-2.5-3.2-2.5C80.77,22.5,79.94,23,79.94,23.37Z"/>
    <path id="i" class="cls-1" d="M96.93,32.41c1,.15,4.24-.5,4.24,0l-.5.49-2.13,1a3.53,3.53,0,0,1-1.49.34H92.42l-.58-.61V21.34q-1.2,0-1.2-.9v-.32l.61-.61h5.07l.61.61ZM94.49,13.7c1.08,0,1.76.76,2,2.28a1.8,1.8,0,0,1-2,2.05h-.25c-1.37-.17-2-.85-2-2.05C92.46,14.46,93.22,13.7,94.49,13.7Z"/>
    <path id="c-2" data-name="c" class="cls-1" d="M103,19.36h7.59l.94,0-.17.36a10.35,10.35,0,0,1-3,4.17L106,23.17h-1.15q-3.4,1.44-3.4,5.67,1.26,3.81,4.17,3.81h.15a6.7,6.7,0,0,0,3.27-.85l3-1.67.29.38-1.78,1.76c-1.54,1.56-2.72,2.28-5.7,2.28q-5.13,0-6.44-7.22V25.8C98.42,22.39,99.93,20.24,103,19.36Z"/>
    <path id="e" class="cls-1" d="M123.59,25.64a7.78,7.78,0,0,1-6.94,3.7,4.14,4.14,0,0,0,3.7,2.55h.22c1.71,0,3.79-.24,4.31-1.57L125,30c.31,0,.47.24.47.7A6.86,6.86,0,0,1,119,34.68q-4.56,0-6.89-4.52a7.14,7.14,0,0,1-.75-3.28v-.54q0-3.56,4.29-6.2a1.51,1.51,0,0,1,.22-.11,6.71,6.71,0,0,1,2.9-.65h.39a6.67,6.67,0,0,1,1.18.14,6.21,6.21,0,0,1,3.43,1.78c.08.07.21.29.35.45a1,1,0,0,1,.14.28l.08.19.12.26a3.76,3.76,0,0,1,.12.67v.2l0,.27-.07.32A4.67,4.67,0,0,1,123.59,25.64Zm-7.19,1.63h.25a4.21,4.21,0,0,0,4.09-2.71,3.51,3.51,0,0,0,.31-1.46h0a.9.9,0,0,0-.88-.81,2.93,2.93,0,0,0-1.71.42Q116.41,24,116.4,27.27Z"/>
  </g>
  <path id="leaf" class="cls-1" d="M102.31,8.12a2,2,0,0,0-.64-1.59,1.17,1.17,0,0,1,1.16-2,1.84,1.84,0,0,0,1.7-.25.81.81,0,0,1,.91-.14.88.88,0,0,1,.43.87q0,.5,0,1a.6.6,0,0,0,1.19,0c0-.37,0-.75,0-1.12,0-.76.63-1.1,1.25-.68a2.09,2.09,0,0,0,1.91.26,1.12,1.12,0,0,1,1.37.5,1.08,1.08,0,0,1-.23,1.44,2.08,2.08,0,0,0-.74,1.78.77.77,0,0,1-1.23.74c-.32-.17-.62-.36-.93-.54a.57.57,0,0,0-.85.22.55.55,0,0,0,.23.8c.3.2.63.36.93.54.68.42.67,1.1,0,1.45a2,2,0,0,0-1.13,1.46,1.17,1.17,0,0,1-2.31,0,1.88,1.88,0,0,0-1.08-1.38.82.82,0,0,1-.57-.73.84.84,0,0,1,.54-.8l.74-.41c.42-.26.55-.55.37-.88s-.52-.41-1-.17c-.23.13-.47.26-.69.4a.91.91,0,0,1-1,.11A.77.77,0,0,1,102.31,8.12Z"/>
  <path id="wave" class="cls-1" d="M125.36,30.28a14.83,14.83,0,0,1,.63,3.2c.45,9-10.41,17.27-19.21,20.62a42.07,42.07,0,0,1-16,2.4c-4.13,0-7.5-.59-14.25-1.71S68.05,53,61.4,52.14a49.77,49.77,0,0,0-10.88-.46A32.35,32.35,0,0,0,43,53a32.86,32.86,0,0,0-10.08,5.27,41.84,41.84,0,0,0-5.86,5.1l-15.9-8.71,6.69-4.16C29.8,43.26,40,41.91,40,41.91c11.42-1.7,35,4.92,35.52,5.07,8.17,2.49,15.49,4,20.57,4.19a46.83,46.83,0,0,0,7.51-.29c.78-.12,4.85-1.09,5-1.15a36.69,36.69,0,0,0,10.77-6.86,17.48,17.48,0,0,0,4.23-5.15c.36-.74.71-1.55,1-2.29a9.62,9.62,0,0,0,.66-3.13Z"/>
</svg>
