<svg id="OntarioBeerLogo" xmlns="http://www.w3.org/2000/svg" width="101.73" height="101.75" viewBox="0 0 101.73 101.75">
  <defs>
    <style>
      .cls-1, .cls-2 {
        fill: #fff;
      }

      .cls-2, .cls-3, .cls-4 {
        stroke: #fff;
        stroke-miterlimit: 10;
      }

      .cls-2 {
        stroke-width: 0.5px;
      }

      .cls-4 {
        stroke-width: 0.75px;
      }
    </style>
  </defs>
  <path id="OutterRing" d="M130.23,176.49a50.88,50.88,0,1,1,50.91-50.7A50.9,50.9,0,0,1,130.23,176.49Zm0-1.85a49,49,0,1,0-49-49.06A49.06,49.06,0,0,0,130.25,174.64Z" transform="translate(-79.41 -74.74)"/>
  <path id="baseCircle" d="M130.25,161.7a36.09,36.09,0,1,1,36.1-36A36.09,36.09,0,0,1,130.25,161.7Z" transform="translate(-79.41 -74.74)"/>
  <g id="sideWheets">
    <path id="wheatStand1" d="M173,132.19c-.16.86-.29,1.65-.45,2.43a42.81,42.81,0,0,1-6.05,14.59,1.3,1.3,0,0,1-.25.35.41.41,0,0,1-.38.05c-.07-.05-.09-.25-.07-.37a1,1,0,0,1,.2-.32,42.33,42.33,0,0,0,6.23-15.67c0-.26.08-.53.13-.8a2.51,2.51,0,0,1,0-.27c0-.17.15-.33.33-.27S172.93,132.11,173,132.19Z" transform="translate(-79.41 -74.74)"/>
    <path id="wheatStand2" d="M87.84,131.85c.2,0,.25.19.28.38.1.59.2,1.17.31,1.76a42.2,42.2,0,0,0,6,14.81,2,2,0,0,1,.27.46.37.37,0,0,1-.11.32.43.43,0,0,1-.33,0,.89.89,0,0,1-.23-.3,42.49,42.49,0,0,1-6.24-15.41c-.1-.51-.19-1-.27-1.55C87.49,132,87.6,131.85,87.84,131.85Z" transform="translate(-79.41 -74.74)"/>
    <path id="wheatPiece8" d="M174.55,128c-.08.84-.15,1.68-.23,2.53a.45.45,0,0,1-.12.28c-.4.3-.81.58-1.3.92,0-.38.08-.64.1-.9.05-.53.11-1.05.14-1.57a.68.68,0,0,1,.28-.55c.34-.25.67-.52,1-.78Z" transform="translate(-79.41 -74.74)"/>
    <path id="wheatPiece12" d="M87.58,131.62c-.48-.33-.88-.6-1.26-.89a.42.42,0,0,1-.14-.28c-.08-.86-.16-1.72-.24-2.72.52.38.91.71,1.31,1a.39.39,0,0,1,.09.24C87.42,129.84,87.49,130.66,87.58,131.62Z" transform="translate(-79.41 -74.74)"/>
    <path id="wheatPiece10" d="M86.36,121c.31.35.63.69.93,1a.32.32,0,0,1,.09.24c0,.85-.1,1.71-.16,2.69-.44-.42-.79-.77-1.14-1.12a.34.34,0,0,1-.07-.25c.06-.85.14-1.71.21-2.56Z" transform="translate(-79.41 -74.74)"/>
    <path id="wheatPiece5" d="M173.06,121.72c-.14-.91-.25-1.68-.37-2.44a.66.66,0,0,1,.11-.56c.28-.34.53-.68.84-1.07a1.54,1.54,0,0,1,.12.3c.13.73.26,1.46.37,2.19a.54.54,0,0,1-.06.4C173.78,120.92,173.45,121.27,173.06,121.72Z" transform="translate(-79.41 -74.74)"/>
    <path id="wheatPiece9" d="M87.44,121.67c-.39-.44-.7-.78-1-1.14a.55.55,0,0,1-.1-.35c.13-.82.28-1.63.43-2.45,0,0,0,0,.11-.1.29.38.6.75.87,1.15a.62.62,0,0,1,0,.41C87.7,120,87.57,120.76,87.44,121.67Z" transform="translate(-79.41 -74.74)"/>
    <path id="wheatPiece11" d="M86.07,124.41c.35.33.71.65,1.05,1a.44.44,0,0,1,.11.29c0,.83,0,1.66,0,2.56a8.1,8.1,0,0,1-1.22-1A.39.39,0,0,1,86,127c0-.84,0-1.69,0-2.53Z" transform="translate(-79.41 -74.74)"/>
    <path id="wheatPiece7" d="M173.26,128.33c0-1,0-1.79,0-2.64a.4.4,0,0,1,.14-.27c.33-.33.67-.64,1.07-1,0,.18.05.29.05.41,0,.7,0,1.4,0,2.1a.68.68,0,0,1-.29.6C174,127.76,173.65,128,173.26,128.33Z" transform="translate(-79.41 -74.74)"/>
    <path id="wheatPiece6" d="M174.24,121c.06.55.12,1,.16,1.4a3.11,3.11,0,0,0,0,.43c.33,1.08-.41,1.59-1.15,2.19a4,4,0,0,1,0-.41c0-.66-.07-1.33-.13-2a.75.75,0,0,1,.22-.63C173.62,121.66,173.89,121.35,174.24,121Z" transform="translate(-79.41 -74.74)"/>
    <path id="wheatPiece16" d="M87.91,131.56c-.07-.52-.14-.94-.19-1.36s0-.72-.09-1.07a.61.61,0,0,1,.21-.58c.31-.27.6-.56.91-.86.06.08.11.11.11.15,0,.72.11,1.44.14,2.16a.75.75,0,0,1-.08.45C88.62,130.81,88.3,131.14,87.91,131.56Z" transform="translate(-79.41 -74.74)"/>
    <path id="wheatPiece4" d="M172.53,131.56l-1-1.09a.36.36,0,0,1-.06-.2l.19-2.6c.44.43.8.76,1.14,1.12a.46.46,0,0,1,.06.31c-.07.75-.15,1.51-.24,2.26C172.63,131.41,172.58,131.45,172.53,131.56Z" transform="translate(-79.41 -74.74)"/>
    <path id="wheatPiece2" d="M171.42,121.3l1.22.84a.36.36,0,0,1,.14.21c.07.86.13,1.71.2,2.57l-.11,0c-.38-.29-.76-.58-1.13-.88a.42.42,0,0,1-.12-.28C171.55,123,171.49,122.22,171.42,121.3Z" transform="translate(-79.41 -74.74)"/>
    <path id="wheatPiece13" d="M89.6,118.09a17.85,17.85,0,0,0-.3,1.92,1.32,1.32,0,0,1-.8,1.21,7.33,7.33,0,0,0-.68.43,3.57,3.57,0,0,1,0-.58c.08-.61.17-1.21.27-1.81,0-.14.07-.32.17-.38C88.67,118.62,89.09,118.39,89.6,118.09Z" transform="translate(-79.41 -74.74)"/>
    <path id="wheatPiece1" d="M171,118.19c.41.24.82.46,1.21.7a.51.51,0,0,1,.19.3c.13.8.25,1.6.37,2.42a5.12,5.12,0,0,1-1.37-.78.48.48,0,0,1-.07-.2c-.13-.76-.25-1.52-.37-2.29C170.92,118.31,170.94,118.27,171,118.19Z" transform="translate(-79.41 -74.74)"/>
    <path id="wheatPiece15" d="M88.82,124.43c0,.93,0,1.74,0,2.55a.48.48,0,0,1-.17.32c-.3.3-.63.59-1,.93a2.61,2.61,0,0,1-.08-.38c0-.65,0-1.3-.06-1.95a.69.69,0,0,1,.29-.65C88.12,125,88.42,124.75,88.82,124.43Z" transform="translate(-79.41 -74.74)"/>
    <path id="wheatPiece14" d="M89.08,121.26c-.07.9-.13,1.67-.2,2.44a.54.54,0,0,1-.13.33c-.36.3-.73.58-1.12.88v-2a3.34,3.34,0,0,0,.05-.43A.56.56,0,0,1,88,122Z" transform="translate(-79.41 -74.74)"/>
    <path id="wheatPiece3" d="M172.81,128.22c-.35-.31-.82-.57-1-1a3.37,3.37,0,0,1-.11-1.36c0-.43,0-.86,0-1.38a12,12,0,0,1,1.17.94.42.42,0,0,1,.12.28c0,.83,0,1.65,0,2.47Z" transform="translate(-79.41 -74.74)"/>
    <path id="wheatLine2" d="M89.24,114l-1.12,4.5A18.78,18.78,0,0,1,89.24,114Z" transform="translate(-79.41 -74.74)"/>
    <path id="wheatLine5" d="M172.37,118.55,171.25,114A19,19,0,0,1,172.37,118.55Z" transform="translate(-79.41 -74.74)"/>
    <path id="wheatLine6" d="M172.8,118.27l-.81-3.39A10.34,10.34,0,0,1,172.8,118.27Z" transform="translate(-79.41 -74.74)"/>
    <path id="wheatLine3" d="M88.52,114.79l-.84,3.5A11.4,11.4,0,0,1,88.52,114.79Z" transform="translate(-79.41 -74.74)"/>
    <path id="wheatLine4" d="M171.17,115.1l.78,3.29-.12,0-.79-3.29Z" transform="translate(-79.41 -74.74)"/>
    <path id="wheatLine1" d="M89.44,115.13l-.78,3.27A11.31,11.31,0,0,1,89.44,115.13Z" transform="translate(-79.41 -74.74)"/>
  </g>
  <g id="innnerLines">
    <path id="bottomLine1" class="cls-1" d="M109.59,152.92H151a1.71,1.71,0,0,1-.35.21,2.06,2.06,0,0,1-.43,0h-40C110.06,153.14,109.77,153.26,109.59,152.92Z" transform="translate(-79.41 -74.74)"/>
    <path id="bottomLine2" class="cls-1" d="M119.86,158.24h20.86v.1a5.1,5.1,0,0,1-.77.11c-1.41,0-2.82,0-4.23,0h-15a8,8,0,0,1-.84-.09Z" transform="translate(-79.41 -74.74)"/>
    <path id="sideRightLine4" class="cls-1" d="M162.78,136.69a1.38,1.38,0,0,1-.27.08c-1.21.09-9.36,0-9.81-.1a1,1,0,0,1,.29-.14,1.69,1.69,0,0,1,.32,0h9.47Z" transform="translate(-79.41 -74.74)"/>
    <path id="sideLeftine4" class="cls-1" d="M107.52,136.68c-.4.11-8.56.18-9.76.09a1.12,1.12,0,0,1-.26-.08c0-.06,0-.08,0-.1s0,0,0,0l9.69,0a.65.65,0,0,1,.2,0S107.47,136.61,107.52,136.68Z" transform="translate(-79.41 -74.74)"/>
    <path id="sideLeftine3" class="cls-1" d="M107.49,140.19c-.3.15-7.74.23-8.38.14-.07,0-.14-.06-.2-.15a8,8,0,0,1,1.69-.09h5.21A7.27,7.27,0,0,1,107.49,140.19Z" transform="translate(-79.41 -74.74)"/>
    <path id="sideRightLine3" class="cls-1" d="M153.06,140.17c.06,0,.12-.07.18-.07,2.8,0,5.6,0,8.43.09a.9.9,0,0,1-.22.14,1.15,1.15,0,0,1-.32,0h-7.55l-.51,0Z" transform="translate(-79.41 -74.74)"/>
    <path id="sideLeftine2" class="cls-1" d="M101.1,144.07a62,62,0,0,1,6.4,0c0,.22-.2.16-.33.16H101.6C101.42,144.25,101.19,144.34,101.1,144.07Z" transform="translate(-79.41 -74.74)"/>
    <path id="sideRightLine2" class="cls-1" d="M159.46,144.05c-.07.29-.29.2-.45.2H153.6l-.53,0c0-.1,0-.12,0-.13a0,0,0,0,1,0,0l6.11,0A.77.77,0,0,1,159.46,144.05Z" transform="translate(-79.41 -74.74)"/>
    <path id="sideRightLine1" class="cls-1" d="M153,148.29h3.31c-.12.11-.2.23-.27.23l-2.86,0S153.09,148.43,153,148.29Z" transform="translate(-79.41 -74.74)"/>
    <path id="sideLeftine1" class="cls-1" d="M104.33,148.29a11,11,0,0,1,3.16.09,7.45,7.45,0,0,1-2.76.16C104.57,148.53,104.4,148.54,104.33,148.29Z" transform="translate(-79.41 -74.74)"/>
    <line id="topLine11" class="cls-2" x1="50.59" y1="28.26" x2="51.59" y2="16.26"/>
    <line id="topLine4" class="cls-2" x1="55.59" y1="32.26" x2="59.59" y2="18.26"/>
    <line id="topLine10" class="cls-2" x1="45.59" y1="31.26" x2="41.59" y2="17.26"/>
    <line id="topLine9" class="cls-2" x1="60.59" y1="36.26" x2="68.59" y2="22.26"/>
    <line id="topLine8" class="cls-2" x1="40.59" y1="36.26" x2="32.59" y2="22.26"/>
    <line id="topLine7" class="cls-2" x1="64.59" y1="40.26" x2="77.59" y2="30.26"/>
    <line id="topLine6" class="cls-2" x1="35.59" y1="41.26" x2="22.59" y2="31.26"/>
    <line id="topLine5" class="cls-2" x1="69.59" y1="46.2" x2="81.59" y2="41.26"/>
    <line id="topLine3" class="cls-2" x1="32.59" y1="46.03" x2="18.59" y2="40.26"/>
    <line id="topLine2" class="cls-2" x1="27.2" y1="50.98" x2="18.51" y2="49.94"/>
    <line id="topLine1" class="cls-2" x1="72.51" y1="50.98" x2="81.2" y2="49.94"/>
  </g>
  <g id="_2020" data-name="2020">
    <path id="_0" data-name="0" class="cls-1" d="M149.8,143.36c0,3.42-1.38,5.76-4.2,5.76s-4.11-2.56-4.13-5.69,1.36-5.73,4.22-5.73S149.8,140.34,149.8,143.36Zm-5.73.07c0,2.53.6,3.74,1.6,3.74s1.55-1.26,1.55-3.77-.53-3.74-1.57-3.74S144.05,140.86,144.07,143.43Z" transform="translate(-79.41 -74.74)"/>
    <path id="_2" data-name="2" class="cls-1" d="M132.21,148.94v-1.57l1.42-1.29c2.42-2.16,3.59-3.4,3.62-4.69,0-.9-.54-1.61-1.81-1.61a4,4,0,0,0-2.37.91l-.73-1.85A6.11,6.11,0,0,1,136,137.7c2.5,0,3.88,1.46,3.88,3.47,0,1.85-1.34,3.33-2.94,4.76l-1,.85v0H140v2.13Z" transform="translate(-79.41 -74.74)"/>
    <path id="_0-2" data-name="0" class="cls-1" d="M130.93,143.36c0,3.42-1.38,5.76-4.2,5.76s-4.11-2.56-4.13-5.69,1.36-5.73,4.22-5.73S130.93,140.34,130.93,143.36Zm-5.73.07c0,2.53.6,3.74,1.6,3.74s1.55-1.26,1.55-3.77-.53-3.74-1.57-3.74S125.18,140.86,125.2,143.43Z" transform="translate(-79.41 -74.74)"/>
    <path id="_2-2" data-name="2" class="cls-1" d="M113.34,148.94v-1.57l1.42-1.29c2.42-2.16,3.59-3.4,3.62-4.69,0-.9-.54-1.61-1.81-1.61a4,4,0,0,0-2.37.91l-.73-1.85a6.11,6.11,0,0,1,3.62-1.14c2.5,0,3.88,1.46,3.88,3.47,0,1.85-1.34,3.33-2.94,4.76l-1,.85v0h4.16v2.13Z" transform="translate(-79.41 -74.74)"/>
  </g>
  <g id="beerAwards">
    <path id="a" d="M147.19,168.66l-1.76.56c-.26-.31-.52-.61-.76-.92a.42.42,0,0,0-.52-.15c-.63.21-1.27.42-1.91.6a.44.44,0,0,0-.36.46c0,.38-.06.75-.09,1.16l-1.72.53,1.12-8.48c.33-.08.41.15.54.29l4.51,4.91Zm-5.13-1.27,1.39-.45a4.22,4.22,0,0,0-1.24-1.38Z" transform="translate(-79.41 -74.74)"/>
    <path id="a-2" data-name="a" d="M123.44,170.07l-.74,1.32-1.68-.18c.11-.42,4.07-6.93,4.49-7.36.1.21.2.39.27.57q1.11,3.29,2.2,6.58l.35,1-1.82-.2-.44-1.45Zm.71-1.29,1.52.18-.51-1.8h-.11Z" transform="translate(-79.41 -74.74)"/>
    <path id="s" d="M161.63,158.33l-.83-1.41.56-.2a3.55,3.55,0,0,0,1.5-1,.7.7,0,0,0,.11-.85.67.67,0,0,0-.8-.3,7.91,7.91,0,0,0-1.06.39,3.73,3.73,0,0,1-1.46.39,2.06,2.06,0,0,1-2.08-2.53,3.84,3.84,0,0,1,2.67-2.71l.86,1.37a6.46,6.46,0,0,0-.87.39,4.19,4.19,0,0,0-.84.67.65.65,0,0,0-.08.84.67.67,0,0,0,.78.21c.31-.1.6-.25.91-.36s.7-.28,1.06-.39a2.25,2.25,0,0,1,2.64,2.86,3.19,3.19,0,0,1-.92,1.45A5.17,5.17,0,0,1,161.63,158.33Z" transform="translate(-79.41 -74.74)"/>
    <path id="e" d="M99.78,160.89l4.69-6.08c1.31,1,2.56,2,3.86,2.95l-1,1.29-2.44-1.87-.85,1.08,2.22,1.73-.93,1.21-2.24-1.7-.92,1.18,2.44,1.9-1,1.27Z" transform="translate(-79.41 -74.74)"/>
    <path id="e-2" data-name="e" d="M109.28,158.38l4.26,2.32-.78,1.43-2.69-1.46-.68,1.19,2.47,1.37-.74,1.34-2.47-1.34-.72,1.32,2.7,1.48-.77,1.42-4.27-2.33Z" transform="translate(-79.41 -74.74)"/>
    <path id="r" d="M117.05,167.08l.69,3.31a10.11,10.11,0,0,1-1.76-.6c-.09,0-.14-.23-.16-.36-.12-.68-.24-1.36-.3-2a.55.55,0,0,0-.47-.56c-.16,0-.31-.1-.51-.16l-.85,2.34-1.66-.58c.83-2.39,1.66-4.75,2.49-7.14a3.71,3.71,0,0,1,.38,0c.66.19,1.33.36,2,.61a5.45,5.45,0,0,1,1.32.72,2.42,2.42,0,0,1-.51,4.17Zm-1.3-3.86c-.28.73-.52,1.38-.75,2.12a8.52,8.52,0,0,0,1.23.26,1.05,1.05,0,0,0,1-.85,1,1,0,0,0-.52-1.13A9.25,9.25,0,0,0,115.75,163.22Z" transform="translate(-79.41 -74.74)"/>
    <path id="r-2" data-name="r" d="M150.2,167.15l-1.57.81-3.53-6.76a10.69,10.69,0,0,1,3.52-1.69,2.43,2.43,0,0,1,2.72,3.21c-.07.2-.16.4-.26.65l2.93,1.79-1.78.93c-.63-.44-1.26-.84-1.84-1.3a.74.74,0,0,0-1,0c-.09.06-.18.1-.33.18Zm-1.84-3.55a2.29,2.29,0,0,0,1.15-.71,1.1,1.1,0,0,0,0-1.27.93.93,0,0,0-1.12-.42,8.93,8.93,0,0,0-1,.49Z" transform="translate(-79.41 -74.74)"/>
    <path id="b" d="M99.84,150.12a11.22,11.22,0,0,1,2.23,2.29,3.22,3.22,0,0,1,.62,1.82,1.6,1.6,0,0,1-2,1.63l-.58-.13.13.49a1.79,1.79,0,0,1-1.92,2.28,3.38,3.38,0,0,1-1.77-.75,12.63,12.63,0,0,1-2.24-2.51Zm-3.36,5.48a12.13,12.13,0,0,0,1,.94.79.79,0,0,0,1.08-.07.82.82,0,0,0,.15-1,3.19,3.19,0,0,0-.94-1.08Zm3.44-3.2-1.2,1.12a12.9,12.9,0,0,0,1,.89.74.74,0,0,0,1-.08.79.79,0,0,0,.14-1A2.22,2.22,0,0,0,99.92,152.4Z" transform="translate(-79.41 -74.74)"/>
    <path id="d" d="M150.86,158.17a10.74,10.74,0,0,1,3.5-2.53,3.81,3.81,0,0,1,5.17,3.39,3.11,3.11,0,0,1-.35,1.68,6.16,6.16,0,0,1-.75,1.13,13.1,13.1,0,0,1-2.92,2.28Zm5.14,3.69c.36-.29.7-.52,1-.8a1.93,1.93,0,0,0,.66-2.05,2.54,2.54,0,0,0-1.73-1.87,2,2,0,0,0-.85,0,3.66,3.66,0,0,0-1.9,1.14Z" transform="translate(-79.41 -74.74)"/>
    <path id="w" d="M130.22,164.37l1.63,3.89,1.65-4.39a8.36,8.36,0,0,1,.87,1.29c.28.42.54.86.81,1.29s.51.82.84,1.34c.36-1.42.55-2.75.88-4.08l2-.18c-.68,2.74-1.33,5.39-2,8-.34.05-.38-.19-.48-.34-.74-1.14-1.47-2.28-2.2-3.42-.09-.15-.2-.3-.36-.53-.64,1.65-1.26,3.22-1.87,4.78-.34,0-.35-.26-.43-.42q-1.46-3.09-2.92-6.18c-.12-.28-.25-.55-.4-.89Z" transform="translate(-79.41 -74.74)"/>
  </g>
  <g id="OntarioLondon">
    <path id="o" d="M91.31,105.11c2.46,1,3.34,3.1,2.44,5.29s-3.11,2.84-5.25,2a3.91,3.91,0,0,1-2.43-5.24A3.77,3.77,0,0,1,91.31,105.11Zm-2.11,5.45c1.47.6,2.78.33,3.25-.8s-.36-2.25-1.82-2.84-2.76-.38-3.24.79S87.74,110,89.2,110.56Z" transform="translate(-79.41 -74.74)"/>
    <path id="n" d="M95.55,106l-6.73-4.51L90,99.7l3.39.26a23.7,23.7,0,0,1,3,.45l0,0a33.27,33.27,0,0,1-2.89-1.75l-2-1.32.94-1.4,6.72,4.51L98.21,102l-3.56-.31a29,29,0,0,1-3.15-.42v0c.91.55,1.87,1.17,3,1.9l2,1.36Z" transform="translate(-79.41 -74.74)"/>
    <path id="t" d="M96.58,93.78l-1.53,1.55L94,94.24l4.38-4.41,1.09,1.09-1.56,1.56,4.65,4.62-1.3,1.3Z" transform="translate(-79.41 -74.74)"/>
    <path id="a-3" data-name="a" d="M104.21,92.89l.75,2L103.42,96l-2.74-8,1.94-1.41,6.78,5.08-1.6,1.16-1.72-1.32Zm.85-2.31-1.41-1.1c-.4-.3-.86-.7-1.24-1h0c.18.46.44,1,.61,1.49l.62,1.67Z" transform="translate(-79.41 -74.74)"/>
    <path id="r-3" data-name="r" d="M106.73,84.16A14.58,14.58,0,0,1,108.87,83a4.17,4.17,0,0,1,2.64-.52,2,2,0,0,1,1.38,1.23,2.13,2.13,0,0,1-.46,2.41v0a2,2,0,0,1,1.62.92c.61.72,1.28,1.58,1.55,1.8l-1.7.78a9.31,9.31,0,0,1-1.3-1.48c-.62-.82-1-.93-1.73-.63l-.5.23,1.33,2.89-1.65.76Zm3.1,2.4.65-.3c.83-.38,1.13-1,.83-1.66s-.92-.81-1.69-.47a6.24,6.24,0,0,0-.73.4Z" transform="translate(-79.41 -74.74)"/>
    <path id="i" d="M115.78,80.47l2.35,7.74-1.75.53L114,81Z" transform="translate(-79.41 -74.74)"/>
    <path id="o-2" data-name="o" d="M126.05,82.57c.39,2.62-1,4.45-3.3,4.8s-4-1.23-4.37-3.5a3.92,3.92,0,0,1,3.26-4.78A3.78,3.78,0,0,1,126.05,82.57Zm-5.77,1c.24,1.57,1.14,2.56,2.35,2.38s1.75-1.45,1.52-3-1.09-2.57-2.34-2.38S120.05,82,120.28,83.54Z" transform="translate(-79.41 -74.74)"/>
    <path id="l" d="M135.94,79.08l1.81.32-1.16,6.45,3.17.57-.28,1.52-5-.9Z" transform="translate(-79.41 -74.74)"/>
    <path id="o-3" data-name="o" d="M148.13,86.53c-.88,2.5-2.93,3.49-5.16,2.7s-3-3-2.22-5.14a3.92,3.92,0,0,1,5.12-2.69A3.77,3.77,0,0,1,148.13,86.53Zm-5.55-1.84c-.52,1.5-.19,2.8,1,3.2s2.23-.46,2.75-1.94.24-2.78-.95-3.2S143.11,83.21,142.58,84.69Z" transform="translate(-79.41 -74.74)"/>
    <path id="n-2" data-name="n" d="M147.53,90.84l4.08-7,1.84,1.08,0,3.41a24.14,24.14,0,0,1-.26,3.06h0a27,27,0,0,1,1.57-3l1.19-2,1.45.84-4.08,7-1.66-1,.08-3.57a31.12,31.12,0,0,1,.23-3.17h0c-.49,1-1,1.94-1.71,3.08L149,91.68Z" transform="translate(-79.41 -74.74)"/>
    <path id="d-2" data-name="d" d="M159.53,88.9a15.4,15.4,0,0,1,2,1.5,5.18,5.18,0,0,1,1.93,2.83,3.59,3.59,0,0,1-1,3.19A4.08,4.08,0,0,1,159.29,98a5.78,5.78,0,0,1-3.5-1.66,17.14,17.14,0,0,1-1.48-1.46Zm-2.95,6.18a3.16,3.16,0,0,0,.45.44,2.51,2.51,0,0,0,3.92-.33,2.32,2.32,0,0,0-.22-3.61,4.87,4.87,0,0,0-.67-.49Z" transform="translate(-79.41 -74.74)"/>
    <path id="o-4" data-name="o" d="M168,103.56c-2.09,1.63-4.35,1.35-5.8-.52s-.91-4.12.91-5.53a3.93,3.93,0,0,1,5.77.5A3.77,3.77,0,0,1,168,103.56ZM164.37,99c-1.25,1-1.68,2.25-.92,3.21s2.12.82,3.36-.15,1.7-2.21.93-3.2S165.61,98.05,164.37,99Z" transform="translate(-79.41 -74.74)"/>
    <path id="n-3" data-name="n" d="M165.19,106.8l7.28-3.54.93,1.92L171.47,108a21,21,0,0,1-1.92,2.4l0,0a31.45,31.45,0,0,1,3-1.61l2.12-1,.74,1.52-7.28,3.53-.84-1.72,2.05-2.92a30.39,30.39,0,0,1,2-2.51l0,0c-.94.51-1.95,1-3.14,1.61l-2.19,1.06Z" transform="translate(-79.41 -74.74)"/>
  </g>
  <g id="tree">
    <path id="leftTree" class="cls-3" d="M115,129.14a1.85,1.85,0,0,0,.14-.14l3.57-5.42.09-.16h-2.86l3.43-4.91H117.9l4.88-7.82c.07.1.13.17.17.24.85,1.35,1.68,2.7,2.53,4a.39.39,0,0,1,0,.48c-.45.74-.88,1.48-1.35,2.28h1.65l-3.85,5.85h3.22l-3.79,6.09,0-.4-.22,0H115Z" transform="translate(-79.41 -74.74)"/>
    <path id="mainTree" class="cls-3" d="M138.18,123.12H135l4.32,6.94h-7.11v4.63h-3.31v-4.61H121.7l4.33-7H122.8l3.84-5.83H125l5.5-9.32,5.49,9.3h-1.65Z" transform="translate(-79.41 -74.74)"/>
    <path id="rightTree" class="cls-3" d="M139.6,129.24l0,.46-3.8-6.1H139l-3.86-5.85h1.65l-.44-.75c-.31-.54-.64-1.07-.94-1.61a.41.41,0,0,1,0-.34c.88-1.43,1.78-2.85,2.67-4.28a.4.4,0,0,0,.07-.07l4.87,7.79h-1.47L145,123.4h-2.87l3.85,5.84Z" transform="translate(-79.41 -74.74)"/>
    <path id="stand1" class="cls-4" d="M124.23,133.13h-2.88v-2.58h2.88Z" transform="translate(-79.41 -74.74)"/>
    <path id="stand2" class="cls-4" d="M136.68,133.13v-2.57h2.89v2.57Z" transform="translate(-79.41 -74.74)"/>
  </g>
</svg>
