<svg id="old_spice_mesh_label" xmlns="http://www.w3.org/2000/svg" xmlns:xlink="http://www.w3.org/1999/xlink" width="288" height="396.88" viewBox="0 0 288 396.88">
  <defs>
    <style>
      .cls-1 {
        fill: #1d4d25;
      }

      .cls-2 {
        opacity: 0.1;
        fill: url(#linear-gradient);
      }

      .cls-3 {
        fill: #98bc40;
      }

      .cls-4 {
        fill: #fff;
      }

      .cls-5 {
        fill: #82ab33;
      }

      .cls-6 {
        fill: #8cb239;
      }
    </style>
    <linearGradient id="linear-gradient" y1="198.64" x2="288" y2="198.64" gradientUnits="userSpaceOnUse">
      <stop offset="0" stop-color="#435e0a" stop-opacity="0"/>
      <stop offset="0.01" stop-color="#50691c" stop-opacity="0.05"/>
      <stop offset="0.06" stop-color="#7b8d54" stop-opacity="0.23"/>
      <stop offset="0.12" stop-color="#a0ad85" stop-opacity="0.37"/>
      <stop offset="0.17" stop-color="#bec6ad" stop-opacity="0.49"/>
      <stop offset="0.23" stop-color="#d5d9cb" stop-opacity="0.59"/>
      <stop offset="0.3" stop-color="#e5e7e1" stop-opacity="0.65"/>
      <stop offset="0.37" stop-color="#efefee" stop-opacity="0.69"/>
      <stop offset="0.47" stop-color="#f2f2f2" stop-opacity="0.7"/>
      <stop offset="0.54" stop-color="#e4e6df" stop-opacity="0.73"/>
      <stop offset="0.67" stop-color="#bec6ad" stop-opacity="0.79"/>
      <stop offset="0.84" stop-color="#81935d" stop-opacity="0.89"/>
      <stop offset="1" stop-color="#435e0a"/>
    </linearGradient>
  </defs>
  <g>
    <rect class="cls-1" y="12.09" width="288" height="373.09"/>
    <rect class="cls-2" y="12.09" width="288" height="373.09"/>
  </g>
  <g id="boat">
    <g id="boat_logo">
      <path id="main" class="cls-3" d="M147,81.14c-.22,0-.43-.07-.64-.08-3.56-.16-7.13-.31-10.69-.48a.88.88,0,0,1-.58-.34,12.91,12.91,0,0,0-4.56-4.31c-3.79-2.1-7.56-4.23-11.35-6.34-.06,0-.14-.06-.18-.11s-.3-.36-.44-.55a1.65,1.65,0,0,1,.67.06c.3.15.45,0,.65-.15l13-10.57c.66-.55,1.35-1.07,2-1.64a5.1,5.1,0,0,0,.93-1.14c.32-.51.8-.44,1.35-.51l-.26,1.14c-.73,3.61-1.54,7.21-2.16,10.83a35.44,35.44,0,0,0-.13,4.5,4.2,4.2,0,0,1-.31,1.23c0,.08-.28.11-.44.11a7.23,7.23,0,0,0-3.06.72c-.38.21-.74.47-1.25.8l4.68,2c.19-.76.37-1.44.54-2.13.51-2.08,1-4.16,1.51-6.26a.66.66,0,0,1,.71-.6c1.11-.07,2.22-.17,3.33-.25.72,0,.72,0,.74-.78,0-.41,0-.82,0-1.23a.93.93,0,0,0-.07-.19,10.46,10.46,0,0,0-5.57,2c.2-1.11.33-2.13.55-3.13.65-2.93,1.33-5.85,2-8.78a.65.65,0,0,1,.67-.61c.85-.06,1.7-.19,2.59-.3v-1a6.44,6.44,0,0,0-2.86.64,1.68,1.68,0,0,1,.06-.36c.36-1.18.76-2.35,1.08-3.54a1.06,1.06,0,0,1,1.19-.89c.58,0,.71-.24.66-.74a1.67,1.67,0,0,1,0-.59c0-.11.15-.19.23-.29.06.09.17.18.18.28a6.86,6.86,0,0,0,0,.91c0,.15.25.39.35.38,1.51-.21,2.1.61,2.35,1.94.16.84.46,1.65.69,2.48a.51.51,0,0,1,0,.17L141.89,53v1.12c.64.07,1.3.11,2,.2,1.61.2,1.6.21,1.81,1.78a34.37,34.37,0,0,0,2.21,9.15,3.66,3.66,0,0,1-.06,1.41A10.32,10.32,0,0,0,142,64.84c0,.66,0,1.3,0,1.93,0,.1.31.24.48.26.93.1,1.85.18,2.78.26a.83.83,0,0,1,.89.89A38.66,38.66,0,0,0,148,76.86a.61.61,0,0,0,.68.51q2,0,4.08,0c.44,0,.62-.15.61-.59,0-.64,0-1.28,0-2a13.52,13.52,0,0,0-4.94.75,3,3,0,0,1-.15-.41c-.32-1.3-.65-2.6-.94-3.91a2.07,2.07,0,0,1,0-1c.36-1.31.74-2.61,1.18-3.89a.91.91,0,0,1,.66-.49c1.36-.17,2.73-.29,4.15-.43v-2a8.79,8.79,0,0,0-4.67,1.69c0-.5,0-.87.08-1.22a75.61,75.61,0,0,1,1.89-10.56.71.71,0,0,1,.63-.62l2.18-.36V51.28l-2.37.48c.08-.28.13-.54.21-.78.43-1.24.86-2.47,1.32-3.69.06-.18.23-.42.39-.45.49-.09.49-.4.49-.78,0-.77,0-1.54,0-2.31,0-.31.15-.61.48-.31,1.71,1.56,3.81,1.67,5.94,1.7.81,0,1.62,0,2.42,0a4.63,4.63,0,0,1,.91.12,1.16,1.16,0,0,1,.95.91,1.52,1.52,0,0,0,1.57,1.33,4.14,4.14,0,0,1,1,.24,2,2,0,0,1,.7.5l-2.63-.52c-.46-.09-.64-.47-.77-.87-.3-.91-.64-1.19-1.6-1.19-1.41,0-2.83,0-4.24,0a6.63,6.63,0,0,1-3.91-1.14,1.16,1.16,0,0,0-.22-.1V46.6c.75.09,1.44.16,2.13.26a.62.62,0,0,1,.4.2,20.48,20.48,0,0,1,1.94,4.73l-4.42-.59v1.16c.87.06,1.72.12,2.57.2.59,0,1.18.15,1.77.2a.44.44,0,0,1,.46.4,68.47,68.47,0,0,1,1.62,11.41c0,.07,0,.14,0,.3a14.65,14.65,0,0,0-6.3-1.46v2.06c.83.1,1.62.22,2.42.31.37,0,.48.2.5.58a28.08,28.08,0,0,0,1.8,9.06,10.19,10.19,0,0,0,.78,1.59,1,1,0,0,0,.63.35,3.13,3.13,0,0,0,.8,0c.93-.06.93-.06.94-1,0-1.61.05-3.22.07-4.83a1.72,1.72,0,0,0-.07-.63,11.36,11.36,0,0,0-.9,5.69c-.9.22-.94.21-1.24-.55a27,27,0,0,1-1.67-5.87c-.06-.38.07-.53.38-.6,1-.24,2.05-.49,3.09-.68.33-.07.47-.15.45-.5s0-.78,0-1.24a7.78,7.78,0,0,0-4.16,1.54c-.08-1.35-.15-2.61-.22-3.86l.16-.14L161.58,66c-.23-2.68-.45-5.29-.68-8l1.58-.42V56.49L160.4,57c.39-1.29.73-2.52,1.18-3.71.08-.24.57-.33,1-.57,0-.45,0-1.06,0-1.66,0-.16.16-.31.24-.46a1.38,1.38,0,0,1,.22.48c0,.46,0,.93,0,1.39,0,.31.08.47.41.47a1.09,1.09,0,0,1,1.07.8c.31.88.69,1.73,1,2.59a6.36,6.36,0,0,1,.19.66c-.7-.12-1.34-.25-2-.34s-.72-.09-.7.64c0,.14,0,.28,0,.41.83.09,1.62.2,2.42.26.43,0,.61.18.67.64A12.33,12.33,0,0,0,167.68,63a.52.52,0,0,1-.15.77c-1.17,1-2.3,2-3.46,3a7.76,7.76,0,0,1-.92.54v1.31l6.28-5.43c.14.92.24,1.8.41,2.66A27.36,27.36,0,0,0,173.46,75s.1.09.15.14v.22a5.82,5.82,0,0,0-.59,0l-8.58,1c-.38,0-.45-.11-.45-.45a29.29,29.29,0,0,0-.08-3.11c-.1-1-.36-1.9-.54-2.85l-.2,0v7.23l7.13-.68c.08,1,.08,1-.77,1.23a8.33,8.33,0,0,0-4.69,2.62.79.79,0,0,1-.52.21l-9.76.47c-.25,0-.5,0-.75.08ZM134.85,57.59l-.1-.09c-.76.65-1.54,1.26-2.26,1.94A10.78,10.78,0,0,0,129,64.67a4.69,4.69,0,0,1-1.77,2.78,1.06,1.06,0,0,0-.15.15.74.74,0,0,1-.89.23c-2.25-.6-4.16.16-6,1.6,1.07.57,2.09,1,3,1.63a.85.85,0,0,0,1.2-.16c2.44-2.31,4.88-4.63,7.36-6.9a5.89,5.89,0,0,0,1.78-2.79c.31-1.06.75-2.09,1.12-3.13C134.75,57.92,134.8,57.75,134.85,57.59Zm-10.4,14.08,4.6,2.4a82.21,82.21,0,0,0,5.24-8.44A4.35,4.35,0,0,0,131.72,67l.76-2.59-.17-.08c-.29.56-.63,1.1-.87,1.69a6.25,6.25,0,0,0-.29,3.53c.1.55-.39.77-.62,1.11-.06.08-.38,0-.57,0A7.26,7.26,0,0,0,124.45,71.67Zm10.48,4.81a18.2,18.2,0,0,0,5.7.76c.09,0,.25-.16.25-.25,0-.94,0-1.87,0-2.85A9,9,0,0,0,134.93,76.48Zm12.4.79c-1-1.69-3.75-3.3-5.26-3.06v3.06Zm12,.1a7.15,7.15,0,0,0-4.92-2.54v2.54Z"/>
      <path id="peice_1" class="cls-3" d="M149.83,53.28c-.62,3.42-1.22,6.68-1.84,10.06-.32-1.26-.64-2.45-.93-3.63-.14-.59-.19-1.2-.35-1.79-.38-1.4.25-2.58.78-3.78a.64.64,0,0,1,.39-.33C148.5,53.62,149.14,53.46,149.83,53.28Z"/>
      <path id="peice_2" class="cls-3" d="M151.64,47.8c-.42,1.29-.84,2.58-1.28,3.86a.46.46,0,0,1-.28.25c-.38.09-.76.13-1.34.23.73-1.48,1.37-2.84,2.08-4.17.1-.19.5-.22.76-.33Z"/>
      <path id="peice_3" class="cls-3" d="M136.34,53.74c.58-1.28,1.11-2.47,1.68-3.63.1-.2.4-.31.61-.45l.12.12c-.36,1.17-.72,2.35-1.11,3.51,0,.1-.24.17-.37.22S136.75,53.64,136.34,53.74Z"/>
    </g>
    <g id="appointment_words">
      <path class="cls-3" d="M108,94.3V90.1h1.33a1.57,1.57,0,0,1,1,.27.83.83,0,0,1,.36.69,1,1,0,0,1-.21.62,1.08,1.08,0,0,1-.56.38h0a1.12,1.12,0,0,1,.7.32,1,1,0,0,1,.26.7,1.08,1.08,0,0,1-.43.88,1.69,1.69,0,0,1-1.07.33Zm.7-3.64v1.2h.45a.85.85,0,0,0,.57-.18.6.6,0,0,0,.2-.48q0-.54-.72-.54Zm0,1.76v1.33h.59a.9.9,0,0,0,.6-.18.64.64,0,0,0,.21-.5c0-.44-.3-.65-.9-.65Z"/>
      <path class="cls-3" d="M114.65,90.1l-1.37,2.68V94.3h-.7V92.79l-1.34-2.69H112l.83,1.8.09.25h0a1.29,1.29,0,0,1,.09-.25l.87-1.8Z"/>
      <path class="cls-3" d="M120.84,94.3h-.76l-.38-1.07h-1.65l-.36,1.07h-.77l1.58-4.2h.78Zm-1.32-1.64L118.93,91c0-.06,0-.14-.05-.27h0a2.31,2.31,0,0,1-.06.27l-.58,1.67Z"/>
      <path class="cls-3" d="M122.39,92.78V94.3h-.69V90.1H123a1.65,1.65,0,0,1,1.12.34,1.16,1.16,0,0,1,.4,1,1.33,1.33,0,0,1-.41,1,1.6,1.6,0,0,1-1.13.39Zm0-2.1v1.53h.45a1,1,0,0,0,.68-.21.73.73,0,0,0,.24-.58c0-.5-.29-.74-.86-.74Z"/>
      <path class="cls-3" d="M126.17,92.78V94.3h-.69V90.1h1.27a1.68,1.68,0,0,1,1.13.34,1.18,1.18,0,0,1,.39,1,1.29,1.29,0,0,1-.41,1,1.58,1.58,0,0,1-1.13.39Zm0-2.1v1.53h.46a1,1,0,0,0,.68-.21.75.75,0,0,0,.23-.58c0-.5-.29-.74-.86-.74Z"/>
      <path class="cls-3" d="M131,94.37a1.86,1.86,0,0,1-1.45-.59,2.13,2.13,0,0,1-.55-1.53,2.33,2.33,0,0,1,.56-1.62,2,2,0,0,1,1.51-.6,1.86,1.86,0,0,1,1.43.59,2.17,2.17,0,0,1,.54,1.53,2.28,2.28,0,0,1-.56,1.62A1.91,1.91,0,0,1,131,94.37Zm0-3.73a1.18,1.18,0,0,0-.94.43,2,2,0,0,0,0,2.27,1.13,1.13,0,0,0,.92.42,1.18,1.18,0,0,0,.95-.4,1.74,1.74,0,0,0,.35-1.14,1.83,1.83,0,0,0-.34-1.17A1.16,1.16,0,0,0,131,90.64Z"/>
      <path class="cls-3" d="M134.79,94.3h-.72V90.1h.72Z"/>
      <path class="cls-3" d="M139.66,94.3h-.76l-2-3.09a1.08,1.08,0,0,1-.12-.24h0c0,.09,0,.28,0,.58V94.3h-.67V90.1h.81l1.94,3,.16.25h0a3.6,3.6,0,0,1,0-.56V90.1h.67Z"/>
      <path class="cls-3" d="M143.67,90.69h-1.2V94.3h-.7V90.69h-1.21V90.1h3.11Z"/>
      <path class="cls-3" d="M149.08,94.3h-.7V91.58c0-.22,0-.49,0-.81h0a3,3,0,0,1-.11.39L147,94.3h-.48l-1.25-3.12a2.52,2.52,0,0,1-.11-.41h0a7.69,7.69,0,0,1,0,.82V94.3h-.65V90.1h1l1.11,2.8a3.28,3.28,0,0,1,.16.48h0c.07-.22.13-.39.17-.49l1.13-2.79h1Z"/>
      <path class="cls-3" d="M152.74,94.3h-2.35V90.1h2.26v.59h-1.57v1.19h1.45v.59h-1.45v1.24h1.66Z"/>
      <path class="cls-3" d="M157.33,94.3h-.76l-2-3.09a1.83,1.83,0,0,1-.13-.24h0c0,.09,0,.28,0,.58V94.3h-.67V90.1h.81l1.94,3,.16.25h0a3.6,3.6,0,0,1,0-.56V90.1h.67Z"/>
      <path class="cls-3" d="M161.34,90.69h-1.21V94.3h-.69V90.69h-1.21V90.1h3.11Z"/>
      <path class="cls-3" d="M166.85,90.69h-1.2V94.3H165V90.69h-1.21V90.1h3.11Z"/>
      <path class="cls-3" d="M169.23,94.37a1.88,1.88,0,0,1-1.46-.59,2.17,2.17,0,0,1-.54-1.53,2.32,2.32,0,0,1,.55-1.62,2,2,0,0,1,1.51-.6,1.86,1.86,0,0,1,1.43.59,2.17,2.17,0,0,1,.54,1.53,2.27,2.27,0,0,1-.55,1.62A1.93,1.93,0,0,1,169.23,94.37Zm0-3.73a1.18,1.18,0,0,0-.94.43,1.73,1.73,0,0,0-.36,1.14,1.77,1.77,0,0,0,.35,1.13,1.13,1.13,0,0,0,.92.42,1.18,1.18,0,0,0,1-.4,1.74,1.74,0,0,0,.35-1.14,1.77,1.77,0,0,0-.34-1.17A1.14,1.14,0,0,0,169.26,90.64Z"/>
      <path class="cls-3" d="M176.93,90.69h-1.21V94.3H175V90.69h-1.2V90.1h3.11Z"/>
      <path class="cls-3" d="M181.19,94.3h-.7V92.48h-2V94.3h-.7V90.1h.7v1.77h2V90.1h.7Z"/>
      <path class="cls-3" d="M184.86,94.3h-2.35V90.1h2.26v.59H183.2v1.19h1.45v.59H183.2v1.24h1.66Z"/>
      <path class="cls-3" d="M111.25,101.5h-.82l-.67-1.12a2.11,2.11,0,0,0-.18-.27,1,1,0,0,0-.17-.18.75.75,0,0,0-.2-.1.85.85,0,0,0-.23,0h-.28v1.7H108V97.3h1.38a1.93,1.93,0,0,1,.55.07,1.44,1.44,0,0,1,.43.21,1,1,0,0,1,.29.36,1.1,1.1,0,0,1,.1.49,1.31,1.31,0,0,1-.06.41.89.89,0,0,1-.19.33,1.16,1.16,0,0,1-.29.25,1.52,1.52,0,0,1-.39.16h0a1.15,1.15,0,0,1,.2.14l.16.16.15.19.17.24Zm-2.55-3.63v1.36h.58a.71.71,0,0,0,.29,0,.72.72,0,0,0,.24-.14.51.51,0,0,0,.15-.23.73.73,0,0,0,.06-.3.58.58,0,0,0-.19-.47.77.77,0,0,0-.55-.17Z"/>
      <path class="cls-3" d="M113.41,101.57A1.88,1.88,0,0,1,112,101a2.17,2.17,0,0,1-.54-1.53,2.32,2.32,0,0,1,.55-1.62,2,2,0,0,1,1.52-.6,1.84,1.84,0,0,1,1.42.59,2.17,2.17,0,0,1,.54,1.53,2.27,2.27,0,0,1-.55,1.62A1.91,1.91,0,0,1,113.41,101.57Zm0-3.73a1.2,1.2,0,0,0-.94.43,1.73,1.73,0,0,0-.36,1.14,1.77,1.77,0,0,0,.35,1.13,1.15,1.15,0,0,0,.92.42,1.18,1.18,0,0,0,1-.4,1.69,1.69,0,0,0,.35-1.14,1.77,1.77,0,0,0-.34-1.17A1.14,1.14,0,0,0,113.44,97.84Z"/>
      <path class="cls-3" d="M119.05,97.3,117.67,100v1.52H117V100l-1.34-2.69h.79l.83,1.8.09.25h0a1.29,1.29,0,0,1,.09-.25l.87-1.8Z"/>
      <path class="cls-3" d="M122.58,101.5h-.77l-.38-1.07h-1.65l-.36,1.07h-.76l1.57-4.2H121Zm-1.33-1.64-.58-1.67a1.71,1.71,0,0,1-.06-.26h0a2.61,2.61,0,0,1-.06.26L120,99.86Z"/>
      <path class="cls-3" d="M125.48,101.5h-2.33V97.3h.7v3.61h1.63Z"/>
      <path class="cls-3" d="M130.06,101.5h-2.32V97.3h.69v3.61h1.63Z"/>
      <path class="cls-3" d="M132.22,101.57a1.86,1.86,0,0,1-1.45-.59,2.13,2.13,0,0,1-.55-1.53,2.33,2.33,0,0,1,.56-1.62,2,2,0,0,1,1.51-.6,1.84,1.84,0,0,1,1.42.59,2.17,2.17,0,0,1,.54,1.53,2.27,2.27,0,0,1-.55,1.62A1.91,1.91,0,0,1,132.22,101.57Zm0-3.73a1.21,1.21,0,0,0-.94.43,1.73,1.73,0,0,0-.36,1.14,1.77,1.77,0,0,0,.35,1.13,1.15,1.15,0,0,0,.92.42,1.2,1.2,0,0,0,1-.4,1.74,1.74,0,0,0,.34-1.14,1.83,1.83,0,0,0-.33-1.17A1.17,1.17,0,0,0,132.25,97.84Z"/>
      <path class="cls-3" d="M138.59,101.5h-.76l-2-3.09a1.36,1.36,0,0,1-.13-.24h0a3.39,3.39,0,0,1,0,.58v2.75H135V97.3h.82l1.94,3a2.58,2.58,0,0,1,.15.25h0a3.6,3.6,0,0,1,0-.56V97.3h.67Z"/>
      <path class="cls-3" d="M142.91,101.22a3.13,3.13,0,0,1-1.47.35,2,2,0,0,1-1.51-.58,2.08,2.08,0,0,1-.57-1.53,2.16,2.16,0,0,1,2.23-2.23,2.93,2.93,0,0,1,1.18.21v.71a2.07,2.07,0,0,0-1.15-.32,1.48,1.48,0,0,0-1.1.44,1.58,1.58,0,0,0-.43,1.15,1.65,1.65,0,0,0,.37,1.14,1.3,1.3,0,0,0,1,.41,1.49,1.49,0,0,0,.75-.17v-1h-.88v-.59h1.58Z"/>
      <path class="cls-3" d="M147.79,101.5h-2.33V97.3h.7v3.61h1.63Z"/>
      <path class="cls-3" d="M152,101.5h-.77l-.37-1.07H149.2l-.36,1.07h-.76l1.57-4.2h.79Zm-1.33-1.64-.58-1.67a1.71,1.71,0,0,1-.06-.26h0a2.61,2.61,0,0,1-.06.26l-.57,1.67Z"/>
      <path class="cls-3" d="M152.38,101.34v-.72a1.34,1.34,0,0,0,.23.16l.29.11a1.57,1.57,0,0,0,.29.08l.28,0a1.13,1.13,0,0,0,.65-.15.48.48,0,0,0,.22-.43.46.46,0,0,0-.07-.26,1,1,0,0,0-.2-.2,2.88,2.88,0,0,0-.31-.17l-.37-.17-.4-.24a1.35,1.35,0,0,1-.32-.26,1,1,0,0,1-.21-.32,1,1,0,0,1-.08-.41,1,1,0,0,1,.13-.52,1.33,1.33,0,0,1,.35-.36,2,2,0,0,1,.5-.21,2.22,2.22,0,0,1,.57-.07,2.28,2.28,0,0,1,1,.15v.69a1.54,1.54,0,0,0-.92-.26,1.63,1.63,0,0,0-.31,0,.79.79,0,0,0-.27.1.48.48,0,0,0-.2.17.41.41,0,0,0-.08.25.49.49,0,0,0,.06.25.75.75,0,0,0,.17.19,2.32,2.32,0,0,0,.28.16l.37.18a2.86,2.86,0,0,1,.42.24,1.84,1.84,0,0,1,.34.27,1.51,1.51,0,0,1,.24.34,1.18,1.18,0,0,1,.08.43,1,1,0,0,1-.13.53,1,1,0,0,1-.34.36,1.65,1.65,0,0,1-.51.2,2.91,2.91,0,0,1-.6.06h-.26l-.31,0-.31-.08A1,1,0,0,1,152.38,101.34Z"/>
      <path class="cls-3" d="M158.54,97.89h-1.21v3.61h-.7V97.89h-1.2V97.3h3.11Z"/>
      <path class="cls-3" d="M159.87,101.5h-.72V97.3h.72Z"/>
      <path class="cls-3" d="M164.46,101.5h-.76l-2-3.09a.92.92,0,0,1-.13-.24h0a3.39,3.39,0,0,1,0,.58v2.75h-.68V97.3h.81l1.94,3a1.73,1.73,0,0,1,.16.25h0a3.6,3.6,0,0,1,0-.56V97.3h.67Z"/>
      <path class="cls-3" d="M168.78,101.22a3.06,3.06,0,0,1-1.46.35,2,2,0,0,1-1.51-.58,2.08,2.08,0,0,1-.57-1.53,2.16,2.16,0,0,1,2.23-2.23,2.93,2.93,0,0,1,1.18.21v.71a2.07,2.07,0,0,0-1.15-.32,1.47,1.47,0,0,0-1.1.44,1.58,1.58,0,0,0-.43,1.15,1.65,1.65,0,0,0,.37,1.14,1.28,1.28,0,0,0,1,.41,1.49,1.49,0,0,0,.75-.17v-1h-.89v-.59h1.58Z"/>
      <path class="cls-3" d="M171.14,101.34v-.72a1.88,1.88,0,0,0,.23.16l.29.11a1.67,1.67,0,0,0,.3.08l.27,0a1.19,1.19,0,0,0,.66-.15.49.49,0,0,0,.21-.43.46.46,0,0,0-.07-.26.76.76,0,0,0-.2-.2l-.3-.17-.38-.17-.4-.24a1.35,1.35,0,0,1-.32-.26,1,1,0,0,1-.21-.32,1,1,0,0,1-.08-.41,1.08,1.08,0,0,1,.13-.52,1.23,1.23,0,0,1,.36-.36,1.81,1.81,0,0,1,.49-.21,2.22,2.22,0,0,1,.57-.07,2.28,2.28,0,0,1,1,.15v.69a1.54,1.54,0,0,0-.92-.26l-.31,0a.79.79,0,0,0-.27.1.55.55,0,0,0-.2.17.41.41,0,0,0-.08.25.49.49,0,0,0,.06.25.75.75,0,0,0,.17.19,2.32,2.32,0,0,0,.28.16l.38.18a3.38,3.38,0,0,1,.41.24,1.84,1.84,0,0,1,.34.27,1.51,1.51,0,0,1,.24.34,1.18,1.18,0,0,1,.08.43,1.07,1.07,0,0,1-.12.53,1.1,1.1,0,0,1-.35.36,1.69,1.69,0,0,1-.5.2,2.93,2.93,0,0,1-.61.06H172l-.32,0-.3-.08A.93.93,0,0,1,171.14,101.34Z"/>
      <path class="cls-3" d="M177.3,97.89h-1.21v3.61h-.69V97.89h-1.21V97.3h3.11Z"/>
      <path class="cls-3" d="M178.63,101.5h-.72V97.3h.72Z"/>
      <path class="cls-3" d="M182.59,101.33a2.58,2.58,0,0,1-1.18.24A1.94,1.94,0,0,1,180,101a2.1,2.1,0,0,1-.55-1.52,2.19,2.19,0,0,1,.62-1.63,2.12,2.12,0,0,1,1.56-.62,2.62,2.62,0,0,1,1,.17v.69a1.85,1.85,0,0,0-.93-.25,1.48,1.48,0,0,0-1.11.44,1.61,1.61,0,0,0-.42,1.17,1.52,1.52,0,0,0,.39,1.1,1.36,1.36,0,0,0,1,.41,1.83,1.83,0,0,0,1-.28Z"/>
      <path class="cls-3" d="M186.57,101.5h-.91l-1.46-1.92a.53.53,0,0,1-.1-.15h0v2.07h-.7V97.3h.7v2h0a.65.65,0,0,1,.1-.15l1.41-1.83h.83l-1.65,2Z"/>
    </g>
  </g>
  <g id="logo_old_spice">
    <g id="words">
      <path id="c" class="cls-4" d="M84.57,191.93c-2.16,3.59-4.64,9.42-18.42,9.79-18.26.49-28.53-12.64-28.53-30.55,0-17.19,9.59-35,28-32.82,19,2.26,21,27.26,21,34.26h4c-1.13-.57-5.72,0-7,0-2,0,4-25-20.09-23.5-12.41.77-18,8.81-18,22.54s4.76,26.29,21,26.29c10.36,0,12.77-1.22,17.28-6Z"/>
      <path id="l" class="cls-4" d="M74.18,191H74q-6.75-1.19-6.76-6.38V158.07a1.88,1.88,0,0,0-2.1-2.14l-.38-.34v-1.07l.72-.72H74l.69.72V185.7l1.07,1.06h1.07a7.15,7.15,0,0,0,2.44-1.59l-.62,2.49A4.43,4.43,0,0,1,74.18,191Z"/>
      <path id="d" class="cls-4" d="M99.25,154.07l1.1,1.11V183q0,3.83,3.83,4.38v1.1c-.71,1.66-1.43,2.57-2.17,2.73H98.18c-2.2-1.43-3.31-2.7-3.31-3.83q-3.27,4.38-7.1,4.38-9.83,0-9.83-10.38,0-9.3,4.93-12a7.75,7.75,0,0,1,7.15,0L93.21,171a.79.79,0,0,0,1.14-.71V160.07a6.23,6.23,0,0,0-2.76-5.45l.56-.55ZM83.94,179.21V183a5.31,5.31,0,0,0,5.48,3.83H90c2.56,0,3.83-1.28,3.83-3.83v-4.9q0-3.75-4.93-4.38Q83.94,175.46,83.94,179.21Z"/>
      <path id="s" class="cls-4" d="M139.33,146.32h22.34a1,1,0,0,1,.94,1.47l-3.84,8.29a1,1,0,0,1-1.22.56l-8.84-2.54a1.24,1.24,0,0,0-.33,0q-5.44.09-5.45,6.35,0,4.42,13,12.07a5.4,5.4,0,0,1,1.86,1.79,12,12,0,0,1,2,6.54v.71q-.92,6.75-8.15,12.45a1.06,1.06,0,0,1-.65.22H127.19a1,1,0,0,1-1-1.15l1.28-10.82h.71q4.62,5.56,13.18,5.62a1.21,1.21,0,0,0,.38-.06q7.54-2.55,7.55-8.38,0-5.07-16.65-16a1.06,1.06,0,0,1-.39-.45,20.35,20.35,0,0,1-2-8.16Q130.26,147.48,139.33,146.32Z"/>
      <path id="p" class="cls-4" d="M165.4,160.28a13.18,13.18,0,0,1,5.45,3.28q3.93-3.28,6.55-3.28,8.68,0,10.38,11.45a12.94,12.94,0,0,1-6,11.49h-6.55l-3.83-3.28V193.6c1.45,0,2.17.36,2.17,1.1l-.55.55h-6.8a.74.74,0,0,1-.52-.22l-.65-.67a.74.74,0,0,1-.2-.5V167.39c0-1.89-.55-3-1.66-3.28l-2.17.52v-1.07Q162.54,160.28,165.4,160.28Zm6,7.11v9.82c.6,1.45,1.87,2.18,3.83,2.18q4.14,0,4.89-5.45V169q-1.89-3.82-4.89-3.83C172.67,166.05,171.4,166.79,171.4,167.39Z"/>
      <path id="i" class="cls-4" d="M197.4,181.22c1.52.22,6.48-.77,6.48-.08l-.75.75-3.27,1.57a5.28,5.28,0,0,1-2.28.51H190.5l-.89-.93V164.28q-1.83,0-1.83-1.38v-.48l.93-.93h7.57a.46.46,0,0,1,.32.13l.61.61a.66.66,0,0,1,.19.46Zm-3.74-28.62q2.49,0,3.11,3.48,0,3.13-3.11,3.13h-.38q-3.14-.37-3.13-3.13Q190.77,152.6,193.66,152.6Z"/>
      <path id="c-2" data-name="c" class="cls-4" d="M206.64,161.25h11.62l1.43,0-.25.55a15.79,15.79,0,0,1-4.66,6.38l-3.18-1a2.16,2.16,0,0,0-.62-.09h-.75a2.79,2.79,0,0,0-1.31.29q-4.23,2.13-4.56,7.45a4.08,4.08,0,0,0,.28,1.8c1.31,3.32,3.33,5,6.07,5h.23a10.19,10.19,0,0,0,5-1.3l4.6-2.56.44.59L218.26,181c-2.36,2.39-4.17,3.48-8.72,3.48q-7.86,0-9.86-11v-2.35Q199.68,163.28,206.64,161.25Z"/>
      <path id="e" class="cls-4" d="M238.2,170.87a11.93,11.93,0,0,1-10.62,5.66q2.1,3.89,5.65,3.89h.35c2.62,0,5.79-.36,6.59-2.39l.13-.44c.48,0,.72.37.72,1.07a10.48,10.48,0,0,1-9.93,6q-7,0-10.54-6.93a11,11,0,0,1-1.15-5v-.83q0-5.44,6.56-9.49l.34-.18a10.32,10.32,0,0,1,4.45-1h.6a11.06,11.06,0,0,1,1.8.22,9.44,9.44,0,0,1,5.24,2.72c.12.11.32.45.54.69a1.47,1.47,0,0,1,.21.42l.13.29.18.4a7.58,7.58,0,0,1,.19,1v.3l0,.41-.11.5A7.55,7.55,0,0,1,238.2,170.87Zm-11,2.48h.38a6.46,6.46,0,0,0,6.26-4.14,5.38,5.38,0,0,0,.46-2.24h0a1.37,1.37,0,0,0-1.33-1.24,4.57,4.57,0,0,0-2.63.65Q227.21,168.36,227.2,173.35Z"/>
    </g>
    <path id="leaf" class="cls-4" d="M205.64,144.05a3,3,0,0,0-1-2.43,1.79,1.79,0,0,1-.52-2.36,1.82,1.82,0,0,1,2.31-.73,2.82,2.82,0,0,0,2.59-.38,1.24,1.24,0,0,1,1.39-.21,1.31,1.31,0,0,1,.66,1.33c0,.5,0,1,0,1.51a.88.88,0,0,0,.88.94.86.86,0,0,0,.94-.87c0-.57,0-1.15,0-1.72a1.16,1.16,0,0,1,1.91-1,3.19,3.19,0,0,0,2.93.4,1.74,1.74,0,0,1,2.1.77,1.68,1.68,0,0,1-.35,2.21,3.14,3.14,0,0,0-1.14,2.72,1.18,1.18,0,0,1-1.88,1.12c-.49-.26-.95-.55-1.43-.81a.87.87,0,0,0-1.29.33.85.85,0,0,0,.35,1.23c.46.3,1,.54,1.42.83a1.17,1.17,0,0,1-.05,2.21,3.06,3.06,0,0,0-1.73,2.23,1.79,1.79,0,0,1-3.54,0,2.85,2.85,0,0,0-1.65-2.12,1.26,1.26,0,0,1-.87-1.11,1.31,1.31,0,0,1,.84-1.23c.38-.2.75-.41,1.12-.63.65-.39.84-.84.57-1.34s-.8-.64-1.47-.26c-.36.19-.71.39-1.05.61a1.37,1.37,0,0,1-1.54.16A1.14,1.14,0,0,1,205.64,144.05Z"/>
    <path id="wave" class="cls-4" d="M240.9,178a22.41,22.41,0,0,1,1,4.91c.69,13.69-15.93,26.41-29.39,31.54-9.9,3.77-18.82,3.71-24.49,3.67-6.32,0-11.48-.9-21.8-2.61-10.54-1.75-13-2.77-23.14-4.05a76,76,0,0,0-16.65-.72,46.78,46.78,0,0,0-26.94,10,64.84,64.84,0,0,0-9,7.8L66.15,215.22l10.24-6.37c18.31-11,33.9-13.1,33.9-13.1,17.47-2.6,53.6,7.53,54.35,7.76,12.51,3.81,23.7,6.11,31.48,6.42a74.07,74.07,0,0,0,11.48-.44c1.2-.19,7.42-1.67,7.68-1.77a55.66,55.66,0,0,0,16.49-10.5c3.14-2.87,5.23-5.29,6.48-7.88.54-1.12,1.08-2.37,1.52-3.49a14.39,14.39,0,0,0,1-4.8Z"/>
  </g>
  <g id="main_text">
    <g id="deodorant">
      <path class="cls-5" d="M108.27,238.16v-9.1h2.63q5,0,5,4.44a4.4,4.4,0,0,1-1.4,3.39,5.33,5.33,0,0,1-3.74,1.27Zm1.5-7.82v6.55H111a3.36,3.36,0,0,0,2.48-.88,3.32,3.32,0,0,0,.88-2.47q0-3.19-3.3-3.2Z"/>
      <path class="cls-5" d="M123.24,238.16h-5.11v-9.1H123v1.28h-3.39v2.58h3.13v1.28h-3.13v2.69h3.6Z"/>
      <path class="cls-5" d="M129.14,238.32A4.1,4.1,0,0,1,126,237a4.69,4.69,0,0,1-1.19-3.32,5,5,0,0,1,1.21-3.5,4.25,4.25,0,0,1,3.28-1.31,4,4,0,0,1,3.08,1.27,4.71,4.71,0,0,1,1.17,3.32,5,5,0,0,1-1.2,3.52A4.12,4.12,0,0,1,129.14,238.32Zm.07-8.08a2.56,2.56,0,0,0-2,.93,4.28,4.28,0,0,0,0,4.9,2.46,2.46,0,0,0,2,.93,2.56,2.56,0,0,0,2.06-.89,3.67,3.67,0,0,0,.75-2.46,3.84,3.84,0,0,0-.73-2.52A2.45,2.45,0,0,0,129.21,230.24Z"/>
      <path class="cls-5" d="M135.75,238.16v-9.1h2.63q5,0,5,4.44a4.4,4.4,0,0,1-1.4,3.39,5.33,5.33,0,0,1-3.74,1.27Zm1.5-7.82v6.55h1.21a3.36,3.36,0,0,0,2.48-.88,3.32,3.32,0,0,0,.88-2.47q0-3.19-3.31-3.2Z"/>
      <path class="cls-5" d="M149.36,238.32a4.07,4.07,0,0,1-3.15-1.28,4.69,4.69,0,0,1-1.19-3.32,4.93,4.93,0,0,1,1.21-3.5,4.23,4.23,0,0,1,3.27-1.31,4,4,0,0,1,3.09,1.27,4.71,4.71,0,0,1,1.17,3.32,5,5,0,0,1-1.2,3.52A4.14,4.14,0,0,1,149.36,238.32Zm.07-8.08a2.53,2.53,0,0,0-2,.93,4.28,4.28,0,0,0,0,4.9,2.45,2.45,0,0,0,2,.93,2.6,2.6,0,0,0,2.07-.89,3.67,3.67,0,0,0,.75-2.46,3.84,3.84,0,0,0-.73-2.52A2.45,2.45,0,0,0,149.43,230.24Z"/>
      <path class="cls-5" d="M163,238.16h-1.77l-1.45-2.43a5.32,5.32,0,0,0-.38-.58,2.39,2.39,0,0,0-.39-.39,1.2,1.2,0,0,0-.42-.22,1.61,1.61,0,0,0-.51-.07h-.61v3.69H156v-9.1h3a4.38,4.38,0,0,1,1.18.15,3.05,3.05,0,0,1,.94.46,2.23,2.23,0,0,1,.63.77,2.45,2.45,0,0,1,.22,1.08,2.71,2.71,0,0,1-.14.88,2.32,2.32,0,0,1-.41.72,2.37,2.37,0,0,1-.63.54,3.15,3.15,0,0,1-.84.34v0a2,2,0,0,1,.43.3c.13.12.24.23.35.35a4.69,4.69,0,0,1,.33.4c.11.15.23.33.36.53Zm-5.53-7.87v3h1.26a1.91,1.91,0,0,0,.64-.1,1.45,1.45,0,0,0,.51-.31,1.48,1.48,0,0,0,.34-.5,1.67,1.67,0,0,0,.12-.65,1.27,1.27,0,0,0-.42-1,1.69,1.69,0,0,0-1.18-.37Z"/>
      <path class="cls-5" d="M172.07,238.16h-1.66l-.82-2.31H166l-.78,2.31h-1.65l3.4-9.1h1.71Zm-2.88-3.54L167.93,231a3.72,3.72,0,0,1-.12-.58h0a3.59,3.59,0,0,1-.12.58l-1.25,3.63Z"/>
      <path class="cls-5" d="M181.57,238.16h-1.65l-4.35-6.69a2.57,2.57,0,0,1-.27-.52h0a8.36,8.36,0,0,1,.05,1.25v6h-1.46v-9.1h1.76l4.2,6.53c.18.27.3.46.35.56h0a8.51,8.51,0,0,1-.06-1.22v-5.87h1.45Z"/>
      <path class="cls-5" d="M190.2,230.34h-2.62v7.82h-1.51v-7.82h-2.61v-1.28h6.74Z"/>
    </g>
    <g id="high_endurance" data-name="high endurance">
      <path class="cls-5" d="M106.89,319.33H105.6V316H102v3.34H100.7v-7.71H102v3.24h3.62v-3.24h1.29Z"/>
      <path class="cls-5" d="M110.55,319.33h-1.31v-7.71h1.31Z"/>
      <path class="cls-5" d="M118.91,318.8a5.49,5.49,0,0,1-2.68.66,3.75,3.75,0,0,1-2.77-1.07,3.84,3.84,0,0,1-1.06-2.81,3.94,3.94,0,0,1,4.1-4.08,5.47,5.47,0,0,1,2.16.37v1.32a3.66,3.66,0,0,0-2.11-.59,2.7,2.7,0,0,0-2,.81,2.9,2.9,0,0,0-.78,2.1,3,3,0,0,0,.67,2.08,2.35,2.35,0,0,0,1.84.76,3,3,0,0,0,1.38-.3v-1.83H116v-1.08h2.9Z"/>
      <path class="cls-5" d="M127.21,319.33h-1.29V316H122.3v3.34H121v-7.71h1.28v3.24h3.62v-3.24h1.29Z"/>
      <path class="cls-5" d="M137.36,319.33H133v-7.71h4.16v1.09h-2.88v2.18H137V316h-2.65v2.28h3.05Z"/>
      <path class="cls-5" d="M145.71,319.33h-1.4l-3.68-5.66a3.19,3.19,0,0,1-.23-.45h0a7.87,7.87,0,0,1,0,1.06v5.05h-1.23v-7.71h1.49l3.55,5.53c.15.23.25.39.29.47h0a7.82,7.82,0,0,1-.05-1v-5h1.23Z"/>
      <path class="cls-5" d="M148.07,319.33v-7.71h2.22c2.84,0,4.26,1.26,4.26,3.76a3.68,3.68,0,0,1-1.18,2.86,4.49,4.49,0,0,1-3.17,1.09Zm1.27-6.62v5.54h1a2.88,2.88,0,0,0,2.1-.74,2.84,2.84,0,0,0,.75-2.1c0-1.8-.94-2.7-2.8-2.7Z"/>
      <path class="cls-5" d="M162.33,316.21c0,2.16-1,3.25-3.07,3.25s-2.94-1-2.94-3.13v-4.71h1.28v4.45c0,1.51.58,2.27,1.76,2.27s1.69-.73,1.69-2.19v-4.53h1.28Z"/>
      <path class="cls-5" d="M170.54,319.33h-1.49l-1.23-2.07a4.43,4.43,0,0,0-.32-.48,1.71,1.71,0,0,0-.33-.33,1,1,0,0,0-.35-.19,1.51,1.51,0,0,0-.44-.06h-.51v3.13h-1.28v-7.71h2.54a4,4,0,0,1,1,.13,2.43,2.43,0,0,1,.79.39,1.85,1.85,0,0,1,.53.65,2,2,0,0,1,.19.91,2.19,2.19,0,0,1-.12.75,1.92,1.92,0,0,1-.34.61,2,2,0,0,1-.54.45,2.26,2.26,0,0,1-.71.29v0a1.77,1.77,0,0,1,.37.27l.29.29a2.42,2.42,0,0,1,.28.34l.3.44Zm-4.67-6.67v2.5h1.06a1.53,1.53,0,0,0,.54-.09,1.28,1.28,0,0,0,.44-.26,1.24,1.24,0,0,0,.28-.42,1.38,1.38,0,0,0,.1-.55A1.12,1.12,0,0,0,168,313a1.52,1.52,0,0,0-1-.31Z"/>
      <path class="cls-5" d="M178.22,319.33h-1.4l-.69-2h-3l-.67,2H171l2.89-7.71h1.44Zm-2.43-3-1.07-3.07a3.17,3.17,0,0,1-.1-.48h0a3,3,0,0,1-.1.48l-1.06,3.07Z"/>
      <path class="cls-5" d="M186.26,319.33h-1.4l-3.68-5.66a3.19,3.19,0,0,1-.23-.45h0a7.87,7.87,0,0,1,0,1.06v5.05h-1.23v-7.71h1.49l3.55,5.53c.15.23.25.39.29.47h0a7.82,7.82,0,0,1-.05-1v-5h1.23Z"/>
      <path class="cls-5" d="M194,319a4.56,4.56,0,0,1-2.17.46,3.55,3.55,0,0,1-2.68-1.06,3.84,3.84,0,0,1-1-2.78,4.08,4.08,0,0,1,1.13-3,3.89,3.89,0,0,1,2.87-1.13,4.75,4.75,0,0,1,1.86.31v1.27a3.28,3.28,0,0,0-1.72-.46,2.71,2.71,0,0,0-2,.8,2.92,2.92,0,0,0-.78,2.14,2.79,2.79,0,0,0,.73,2,2.5,2.5,0,0,0,1.91.76,3.39,3.39,0,0,0,1.89-.52Z"/>
      <path class="cls-5" d="M200.22,319.33H195.9v-7.71h4.15v1.09h-2.87v2.18h2.65V316h-2.65v2.28h3Z"/>
    </g>
    <g id="pure_sport">
      <path class="cls-6" d="M81.77,261.51a28,28,0,0,1,4.73-.32,7.43,7.43,0,0,1,4.74,1.24A4.52,4.52,0,0,1,92.9,266a5,5,0,0,1-1.43,3.68,7.19,7.19,0,0,1-5,1.64,9.77,9.77,0,0,1-1.19-.07v5.54H81.77Zm3.47,7a5.23,5.23,0,0,0,1.17.1c1.86,0,3-.95,3-2.53s-1-2.28-2.73-2.28a5.84,5.84,0,0,0-1.45.14Z"/>
      <path class="cls-6" d="M99.57,261.3v8.92c0,2.67,1,4,2.8,4s2.85-1.29,2.85-4V261.3h3.5V270c0,4.79-2.41,7.06-6.46,7.06s-6.21-2.16-6.21-7.1V261.3Z"/>
      <path class="cls-6" d="M112.7,261.51a30.15,30.15,0,0,1,4.67-.32c2.3,0,3.91.34,5,1.21a4,4,0,0,1,1.43,3.25,4.1,4.1,0,0,1-2.74,3.81v.07a3.91,3.91,0,0,1,2.07,2.9,45,45,0,0,0,1.27,4.37h-3.59a19.71,19.71,0,0,1-1.08-3.61c-.42-1.93-1.08-2.46-2.51-2.49h-1.06v6.1H112.7Zm3.47,6.67h1.38c1.75,0,2.79-.88,2.79-2.24s-1-2.13-2.58-2.16a8.33,8.33,0,0,0-1.59.12Z"/>
      <path class="cls-6" d="M136.5,270.24h-5.7v3.68h6.37v2.88h-9.89V261.3h9.57v2.87h-6v3.22h5.7Z"/>
      <path class="cls-6" d="M146.21,273.19a9,9,0,0,0,3.89,1c1.61,0,2.46-.66,2.46-1.67s-.74-1.52-2.6-2.19c-2.58-.9-4.25-2.32-4.25-4.58,0-2.64,2.2-4.66,5.86-4.66a9.37,9.37,0,0,1,4,.78l-.78,2.83a7.32,7.32,0,0,0-3.24-.74c-1.52,0-2.25.69-2.25,1.5,0,1,.87,1.42,2.87,2.18,2.74,1,4,2.44,4,4.62,0,2.6-2,4.81-6.26,4.81a10.17,10.17,0,0,1-4.39-.94Z"/>
      <path class="cls-6" d="M159.46,261.51a28.1,28.1,0,0,1,4.74-.32,7.39,7.39,0,0,1,4.73,1.24,4.52,4.52,0,0,1,1.66,3.58,5,5,0,0,1-1.43,3.68,7.15,7.15,0,0,1-5,1.64,10,10,0,0,1-1.2-.07v5.54h-3.47Zm3.47,7a5.27,5.27,0,0,0,1.18.1c1.86,0,3-.95,3-2.53s-1-2.28-2.74-2.28a6,6,0,0,0-1.45.14Z"/>
      <path class="cls-6" d="M188,268.89c0,5.08-3.08,8.16-7.61,8.16s-7.29-3.47-7.29-7.89c0-4.64,3-8.11,7.55-8.11C185.36,261.05,188,264.61,188,268.89Zm-11.2.21c0,3,1.43,5.17,3.78,5.17s3.72-2.25,3.72-5.27c0-2.78-1.33-5.17-3.75-5.17S176.75,266.08,176.75,269.1Z"/>
      <path class="cls-6" d="M191.2,261.51a30.15,30.15,0,0,1,4.67-.32c2.3,0,3.91.34,5,1.21a4,4,0,0,1,1.43,3.25,4.12,4.12,0,0,1-2.74,3.81v.07a3.91,3.91,0,0,1,2.07,2.9c.48,1.75,1,3.77,1.26,4.37h-3.58a18.9,18.9,0,0,1-1.08-3.61c-.42-1.93-1.08-2.46-2.51-2.49h-1.06v6.1H191.2Zm3.47,6.67h1.38c1.75,0,2.78-.88,2.78-2.24s-1-2.13-2.57-2.16a8.33,8.33,0,0,0-1.59.12Z"/>
      <path class="cls-6" d="M208.77,264.24h-4.16V261.3h11.91v2.94h-4.23V276.8h-3.52Z"/>
    </g>
  </g>
  <g id="beer_content">
    <g id="beer">
      <path class="cls-4" d="M52.75,359.88v-5.61h1.78a2.1,2.1,0,0,1,1.29.36,1.13,1.13,0,0,1,.47.93,1.3,1.3,0,0,1-.27.82,1.44,1.44,0,0,1-.74.5v0a1.45,1.45,0,0,1,.92.43,1.3,1.3,0,0,1,.35.94,1.4,1.4,0,0,1-.57,1.16,2.22,2.22,0,0,1-1.43.45Zm.93-4.86v1.59h.6a1.17,1.17,0,0,0,.76-.22.82.82,0,0,0,.28-.65c0-.48-.32-.72-1-.72Zm0,2.34v1.77h.79a1.18,1.18,0,0,0,.8-.24.82.82,0,0,0,.29-.66c0-.58-.4-.87-1.21-.87Z"/>
      <path class="cls-4" d="M61.24,358.12H58.51a1.19,1.19,0,0,0,.34.86,1.29,1.29,0,0,0,.9.3,2,2,0,0,0,1.18-.38v.73a2.71,2.71,0,0,1-1.45.34,1.75,1.75,0,0,1-1.38-.55,2.44,2.44,0,0,1,0-3.05,1.81,1.81,0,0,1,1.37-.59,1.58,1.58,0,0,1,1.27.53,2.18,2.18,0,0,1,.45,1.46Zm-.88-.64a1.17,1.17,0,0,0-.23-.76.77.77,0,0,0-.62-.27.84.84,0,0,0-.66.29,1.22,1.22,0,0,0-.34.74Z"/>
      <path class="cls-4" d="M65.86,358.12H63.13a1.15,1.15,0,0,0,.34.86,1.29,1.29,0,0,0,.9.3,2,2,0,0,0,1.17-.38v.73a2.65,2.65,0,0,1-1.44.34,1.79,1.79,0,0,1-1.39-.55,2.48,2.48,0,0,1,0-3.05,1.83,1.83,0,0,1,1.38-.59,1.59,1.59,0,0,1,1.27.53,2.18,2.18,0,0,1,.45,1.46Zm-.88-.64a1.17,1.17,0,0,0-.23-.76.77.77,0,0,0-.62-.27.88.88,0,0,0-.67.29,1.27,1.27,0,0,0-.33.74Z"/>
      <path class="cls-4" d="M69.41,356.74a.73.73,0,0,0-.47-.13.82.82,0,0,0-.68.36,1.64,1.64,0,0,0-.27,1v1.92h-.9v-4H68v.82h0a1.38,1.38,0,0,1,.41-.66.9.9,0,0,1,.61-.23.78.78,0,0,1,.38.07Z"/>
    </g>
    <g id="biere">
      <path class="cls-4" d="M94,359.88v-5.61h1.78a2.1,2.1,0,0,1,1.29.36,1.13,1.13,0,0,1,.47.93,1.3,1.3,0,0,1-.27.82,1.43,1.43,0,0,1-.75.5v0a1.45,1.45,0,0,1,.93.43,1.29,1.29,0,0,1,.34.94,1.39,1.39,0,0,1-.56,1.16,2.24,2.24,0,0,1-1.43.45Zm.93-4.86v1.59h.6a1.18,1.18,0,0,0,.76-.22.82.82,0,0,0,.27-.65q0-.72-1-.72Zm0,2.34v1.77h.79a1.19,1.19,0,0,0,.8-.24.82.82,0,0,0,.29-.66c0-.58-.41-.87-1.21-.87Z"/>
      <path class="cls-4" d="M99.52,355a.52.52,0,0,1-.38-.15.47.47,0,0,1-.16-.37.49.49,0,0,1,.16-.37.52.52,0,0,1,.38-.15.56.56,0,0,1,.39.15.52.52,0,0,1,.16.37.54.54,0,0,1-.16.37A.56.56,0,0,1,99.52,355Zm.45,4.84h-.91v-4H100Z"/>
      <path class="cls-4" d="M104.9,358.12h-2.72a1.15,1.15,0,0,0,.34.86,1.29,1.29,0,0,0,.9.3,2,2,0,0,0,1.17-.38v.73a2.65,2.65,0,0,1-1.44.34,1.79,1.79,0,0,1-1.39-.55,2.18,2.18,0,0,1-.5-1.53,2.12,2.12,0,0,1,.55-1.52,1.83,1.83,0,0,1,1.38-.59,1.59,1.59,0,0,1,1.27.53,2.23,2.23,0,0,1,.44,1.46Zm-.87-.64a1.17,1.17,0,0,0-.23-.76.77.77,0,0,0-.63-.27.84.84,0,0,0-.66.29,1.27,1.27,0,0,0-.33.74Z"/>
      <path class="cls-4" d="M108.46,356.74a.74.74,0,0,0-.48-.13.82.82,0,0,0-.67.36,1.64,1.64,0,0,0-.27,1v1.92h-.9v-4h.9v.82h0a1.38,1.38,0,0,1,.41-.66.88.88,0,0,1,.61-.23.78.78,0,0,1,.38.07Z"/>
      <path class="cls-4" d="M112.78,358.12h-2.73a1.16,1.16,0,0,0,.35.86,1.24,1.24,0,0,0,.89.3,2,2,0,0,0,1.18-.38v.73A2.71,2.71,0,0,1,111,360a1.76,1.76,0,0,1-1.38-.55,2.48,2.48,0,0,1,0-3.05,1.82,1.82,0,0,1,1.37-.59,1.58,1.58,0,0,1,1.27.53,2.18,2.18,0,0,1,.45,1.46Zm-.87-.64a1.23,1.23,0,0,0-.23-.76.79.79,0,0,0-.63-.27.84.84,0,0,0-.66.29,1.34,1.34,0,0,0-.34.74Z"/>
    </g>
    <g id="alc_content">
      <path class="cls-4" d="M136.5,359.75v-.87a2,2,0,0,0,1.12.37,1.41,1.41,0,0,0,.92-.29,1,1,0,0,0,.35-.78.85.85,0,0,0-.36-.74,1.62,1.62,0,0,0-1-.27l-.92.05.2-3h2.76v.78h-2l-.1,1.4.49,0a2,2,0,0,1,1.38.46,1.65,1.65,0,0,1,.48,1.25,1.72,1.72,0,0,1-.55,1.34,2.22,2.22,0,0,1-1.53.5A2.61,2.61,0,0,1,136.5,359.75Z"/>
      <path class="cls-4" d="M141.67,360a.54.54,0,0,1-.39-.15.5.5,0,0,1,0-.75.54.54,0,0,1,.39-.15.59.59,0,0,1,.41.15.51.51,0,0,1,.16.38.5.5,0,0,1-.16.37A.59.59,0,0,1,141.67,360Z"/>
      <path class="cls-4" d="M145.17,360a1.57,1.57,0,0,1-1.37-.72,3.58,3.58,0,0,1-.49-2.06,4.07,4.07,0,0,1,.51-2.25,1.67,1.67,0,0,1,1.48-.76c1.23,0,1.85,1,1.85,2.87a3.84,3.84,0,0,1-.52,2.17A1.69,1.69,0,0,1,145.17,360Zm.09-5.07q-1,0-1,2.25c0,1.4.33,2.1,1,2.1s1-.71,1-2.14S145.9,354.9,145.26,354.9Z"/>
      <path class="cls-4" d="M149.44,357.09a1.21,1.21,0,0,1-.94-.38,1.44,1.44,0,0,1-.36-1,1.55,1.55,0,0,1,.38-1.1,1.32,1.32,0,0,1,1-.4,1.23,1.23,0,0,1,.95.37,1.74,1.74,0,0,1,0,2.12A1.29,1.29,0,0,1,149.44,357.09Zm.06-2.35a.58.58,0,0,0-.51.25,1.09,1.09,0,0,0-.19.67,1,1,0,0,0,.19.66.64.64,0,0,0,1,0,1.14,1.14,0,0,0,.18-.68A1.08,1.08,0,0,0,150,355,.59.59,0,0,0,149.5,354.74Zm3.73-.47-3.59,5.64h-.56l3.59-5.64Zm-.5,5.69a1.25,1.25,0,0,1-.95-.38,1.45,1.45,0,0,1-.35-1,1.52,1.52,0,0,1,.38-1.09,1.27,1.27,0,0,1,1-.4,1.2,1.2,0,0,1,.95.37,1.47,1.47,0,0,1,.34,1,1.53,1.53,0,0,1-.38,1.08A1.28,1.28,0,0,1,152.73,360Zm.05-2.35a.6.6,0,0,0-.5.25,1.06,1.06,0,0,0-.19.68,1,1,0,0,0,.18.65.61.61,0,0,0,.5.24.58.58,0,0,0,.5-.25,1.12,1.12,0,0,0,.18-.68,1,1,0,0,0-.18-.65A.58.58,0,0,0,152.78,357.61Z"/>
      <path class="cls-4" d="M161.13,359.88h-.88v-.63h0A1.33,1.33,0,0,1,159,360a1.29,1.29,0,0,1-.92-.32,1.13,1.13,0,0,1-.33-.85c0-.75.43-1.19,1.3-1.32l1.19-.17c0-.57-.27-.85-.81-.85a1.91,1.91,0,0,0-1.29.49v-.79a2.81,2.81,0,0,1,1.46-.38,1.33,1.33,0,0,1,1.51,1.49Zm-.87-2-.84.12a1.2,1.2,0,0,0-.59.19.55.55,0,0,0-.2.48.52.52,0,0,0,.19.42.68.68,0,0,0,.48.16A.88.88,0,0,0,160,359a1,1,0,0,0,.27-.73Z"/>
      <path class="cls-4" d="M163.52,359.88h-.91V354h.91Z"/>
      <path class="cls-4" d="M167.93,359.69a2.19,2.19,0,0,1-1.14.28,2,2,0,0,1-1.44-.56,2,2,0,0,1-.54-1.44,2.14,2.14,0,0,1,.59-1.59,2.09,2.09,0,0,1,1.57-.6,2.42,2.42,0,0,1,1,.19v.85a1.45,1.45,0,0,0-.89-.32,1.24,1.24,0,0,0-.94.39,1.45,1.45,0,0,0-.37,1,1.37,1.37,0,0,0,.35,1,1.23,1.23,0,0,0,.93.36,1.47,1.47,0,0,0,.92-.35Z"/>
      <path class="cls-4" d="M169.57,360a.57.57,0,0,1-.4-.15.5.5,0,0,1-.16-.37.51.51,0,0,1,.16-.38.61.61,0,0,1,.8,0,.5.5,0,0,1,0,.75A.57.57,0,0,1,169.57,360Z"/>
      <path class="cls-4" d="M174.29,354.27l-2.71,6.54h-.82l2.69-6.54Z"/>
      <path class="cls-4" d="M178.61,355.88l-1.54,4h-1l-1.48-4h1l.89,2.79a3.89,3.89,0,0,1,.12.54h0a3.38,3.38,0,0,1,.11-.52l.93-2.81Z"/>
      <path class="cls-4" d="M181.31,360a2,2,0,0,1-1.48-.56,2,2,0,0,1-.55-1.49,2,2,0,0,1,2.12-2.14,2,2,0,0,1,1.47.55,2.18,2.18,0,0,1,.52,1.53,2.07,2.07,0,0,1-.57,1.53A2,2,0,0,1,181.31,360Zm0-3.47a1,1,0,0,0-.84.38,1.78,1.78,0,0,0,0,2,1.06,1.06,0,0,0,.84.36,1,1,0,0,0,.82-.35,1.94,1.94,0,0,0,0-2A1,1,0,0,0,181.35,356.5Z"/>
      <path class="cls-4" d="M185.59,359.88h-.91V354h.91Z"/>
      <path class="cls-4" d="M187.51,360a.59.59,0,0,1-.4-.15.5.5,0,0,1-.16-.37.51.51,0,0,1,.16-.38.59.59,0,0,1,.4-.15.59.59,0,0,1,.41.15.51.51,0,0,1,.16.38.5.5,0,0,1-.16.37A.59.59,0,0,1,187.51,360Z"/>
    </g>
    <g id="_300_ml" data-name="300 ml">
      <path class="cls-4" d="M209.06,359.67v-.85a1.92,1.92,0,0,0,1.23.43,1.46,1.46,0,0,0,.9-.25.83.83,0,0,0,.33-.69c0-.64-.48-.95-1.46-.95h-.43v-.73H210c.87,0,1.3-.3,1.3-.9s-.34-.83-1-.83a1.64,1.64,0,0,0-1.06.41v-.81a2.75,2.75,0,0,1,1.35-.32,1.79,1.79,0,0,1,1.19.38,1.19,1.19,0,0,1,.45,1,1.37,1.37,0,0,1-1.12,1.42h0a1.43,1.43,0,0,1,1,.43,1.24,1.24,0,0,1,.36.91,1.5,1.5,0,0,1-.57,1.22,2.29,2.29,0,0,1-1.49.46A2.54,2.54,0,0,1,209.06,359.67Z"/>
      <path class="cls-4" d="M215.55,360a1.58,1.58,0,0,1-1.37-.72,3.66,3.66,0,0,1-.49-2.06,4,4,0,0,1,.52-2.25,1.66,1.66,0,0,1,1.47-.76c1.23,0,1.85,1,1.85,2.87a3.76,3.76,0,0,1-.52,2.17A1.69,1.69,0,0,1,215.55,360Zm.09-5.07q-1,0-1,2.25c0,1.4.33,2.1,1,2.1s1-.71,1-2.14S216.28,354.9,215.64,354.9Z"/>
      <path class="cls-4" d="M220.36,360a1.58,1.58,0,0,1-1.37-.72,3.66,3.66,0,0,1-.49-2.06,4.07,4.07,0,0,1,.51-2.25,1.68,1.68,0,0,1,1.48-.76c1.23,0,1.85,1,1.85,2.87a3.76,3.76,0,0,1-.52,2.17A1.69,1.69,0,0,1,220.36,360Zm.09-5.07q-1,0-1,2.25c0,1.4.33,2.1,1,2.1s1-.71,1-2.14S221.09,354.9,220.45,354.9Z"/>
      <path class="cls-4" d="M229.58,359.88h-.91V357.7a1.73,1.73,0,0,0-.18-.91.65.65,0,0,0-.6-.29.73.73,0,0,0-.6.36,1.49,1.49,0,0,0-.25.85v2.17h-.91v-2.26c0-.74-.26-1.12-.79-1.12a.73.73,0,0,0-.6.34,1.47,1.47,0,0,0-.24.87v2.17h-.9v-4h.9v.63h0a1.38,1.38,0,0,1,1.26-.73,1.17,1.17,0,0,1,.72.23,1.14,1.14,0,0,1,.43.6,1.44,1.44,0,0,1,1.33-.83c.88,0,1.32.54,1.32,1.63Z"/>
      <path class="cls-4" d="M234.25,359.88h-3.1v-5.61h.93v4.82h2.17Z"/>
    </g>
  </g>
  <rect id="band_top_white" class="cls-4" width="288" height="12.09"/>
  <rect id="band_bottom_white" class="cls-4" y="384.79" width="288" height="12.09"/>
</svg>
