<svg id="startUpLogo" xmlns="http://www.w3.org/2000/svg" width="248.34" height="90.84" viewBox="0 0 248.34 90.84">
  <defs>
    <style>
      .cls-1 {
        fill: #f70606;
      }
    </style>
  </defs>
  <path id="cicrle" class="cls-1" d="M53.88,82.81c-25,.16-44.89,21.27-44.35,46a45,45,0,0,0,90.05-1C99.56,102.45,79.37,82.64,53.88,82.81Zm26.76,50.13q-4.64,3.54-9.3,7c-2.19,1.65-2.47,2.67-1.44,5.23l1.17,2.86c-3.22-.61-6.09-1.14-9-1.7-1.42-.27-2.83-.6-4.26-.87-1.73-.33-2.21.16-2.11,2,.22,4.34.36,8.69.64,13,.1,1.58-.57,1.84-2,1.85s-1.68-.7-1.61-2c.25-4.41.36-8.82.6-13.23.09-1.64-.68-1.91-2-1.64-4.25.85-8.51,1.67-13.27,2.6.44-1.15.73-2,1.08-2.8,1.08-2.54.72-3.77-1.46-5.41-4.62-3.49-9.22-7-14.15-10.77,1.1-.44,1.87-.71,2.61-1,1.42-.63,2.22-1.47,1.61-3.23-.94-2.72-1.68-5.51-2.62-8.65,2.13.35,4,.63,5.82.94,3.76.65,4.17.4,5.36-3.29.08-.25.17-.48.42-1.15,1.39,1.62,2.62,3,3.82,4.45.93,1.11,1.76,2.32,2.79,3.33.42.42,1.24.44,1.89.65a5.13,5.13,0,0,0,.36-1.78c-1-5.43-2.07-10.84-3.12-16.26,0-.19,0-.38,0-1,1.19.83,2.15,1.52,3.13,2.19,2.36,1.6,3.83,1.13,4.9-1.53a83.2,83.2,0,0,1,4.21-9.36c.79,1.82,1.59,3.62,2.35,5.45.6,1.46,1.1,3,1.73,4.41.87,2,2.22,2.48,4.1,1.36,1.17-.7,2.26-1.53,3.88-2.64-.45,2.44-.77,4.33-1.14,6.22-.68,3.41-1.39,6.82-2.07,10.24a3.59,3.59,0,0,0-.09,1.17,12.41,12.41,0,0,0,.46,1.58c.59-.19,1.37-.22,1.72-.61,1.59-1.77,3-3.64,4.56-5.47.58-.7,1.21-1.36,2.09-2.34.32.92.55,1.54.76,2.17.74,2.25,1.87,2.91,4.19,2.47,2.11-.4,4.21-.78,6.67-1.23-.87,2.95-1.59,5.52-2.39,8.07s-.59,3.07,2,4c.53.2,1,.48,1.82.86C83.69,130.52,82.19,131.76,80.64,132.94Z" transform="translate(-9.52 -82.81)"/>
  <g id="wordsCA">
    <g id="up">
      <path id="u" d="M215.24,104.06c0,6.85.18,13.7-.07,20.54a9.63,9.63,0,0,1-6.2,9.13c-4.29,1.7-8.72,1.64-12.66-1.07-3-2-3.51-5.45-3.92-8.74a54.23,54.23,0,0,1-.36-6.5c0-10.48,0-21-.05-31.43,0-1.48.43-1.92,1.9-1.94,5,0,5-.09,5,4.89,0,10.21,0,20.43.06,30.64a20,20,0,0,0,.74,4.85c.54,2,2,2.94,4.14,2.93s3.65-.89,4.13-2.94a25.51,25.51,0,0,0,.66-5.65c.07-10.74.1-21.48,0-32.22,0-2.07.62-2.56,2.57-2.51,4.35.12,4.35,0,4.35,4.4v15.62Z" transform="translate(-9.52 -82.81)"/>
      <path id="p" d="M229,112.51V133.4h-6.79V84.26c.8-.06,1.56-.18,2.32-.17,3.89,0,7.78,0,11.67.14A7.55,7.55,0,0,1,243.65,90a26.36,26.36,0,0,1,0,15.94c-1.42,4.45-4.57,6.5-9.47,6.6C232.51,112.54,230.88,112.51,229,112.51Zm-.13-21.71v14.85c2.83-.09,6,1,7.71-1.9a10.82,10.82,0,0,0,.22-10.81C235.19,89.86,231.83,91.08,228.89,90.8Z" transform="translate(-9.52 -82.81)"/>
    </g>
    <g id="canada">
      <path id="n" d="M169.59,139.06v33.67a27.47,27.47,0,0,1-4.37-.07,2.62,2.62,0,0,1-1.52-1.61c-2.24-6.59-4.38-13.21-6.56-19.82a2.54,2.54,0,0,0-.84-1.26v22.6h-4.75c-.05-.65-.14-1.34-.14-2,0-9.76,0-19.51,0-29.26,0-1.94.58-2.49,2.46-2.39,3.5.19,2.93-.39,4,3q3.1,9.57,6.26,19.11a12.9,12.9,0,0,0,.68,1.29v-23.2Z" transform="translate(-9.52 -82.81)"/>
      <path id="d" d="M200.85,172.73c0-.78-.11-1.36-.11-1.93,0-9.94,0-19.88-.05-29.82,0-1.69.54-2.16,2.14-2.08,3,.16,6.07,0,9.08.28,3.79.35,6.11,2.54,6.79,6.32a58.74,58.74,0,0,1-.1,20.23c-.86,5.19-3.26,7-8.61,7C207,172.75,204,172.73,200.85,172.73Zm5.27-4.84c5.37.72,7-.2,7.42-5.18a82.59,82.59,0,0,0,0-13.8c-.39-4.75-2.53-5.92-7.41-4.76Z" transform="translate(-9.52 -82.81)"/>
      <path id="a" d="M195.31,172.64h-5.52c-.51-2.67-1-5.36-1.54-8.12h-6.5c-.49,2.71-1,5.39-1.47,8.14H175c.17-1.15.29-2.27.51-3.38,1.86-9.41,3.78-18.81,5.55-28.24.33-1.77,1.07-2.18,2.73-2.15,4.89.08,5,0,6,4.68,1.94,9.4,3.78,18.81,5.65,28.23A4.35,4.35,0,0,1,195.31,172.64Zm-7.83-13.31c-.77-4.62-1.5-9.09-2.24-13.55l-.44,0-2.18,13.52Z" transform="translate(-9.52 -82.81)"/>
      <path id="a-2" data-name="a" d="M131.07,172.64h-5.46c2.22-11.24,4.42-22.36,6.65-33.71,2.13,0,4.23-.1,6.3.08.49,0,1.18,1,1.31,1.55,1.26,6,2.41,12,3.6,18,.92,4.63,1.83,9.27,2.78,14.06h-5.71c-.4-2.14-.9-4.36-1.2-6.61-.17-1.28-.73-1.64-1.94-1.58-1.57.09-3.15,0-4.87,0C132,167.17,131.57,169.8,131.07,172.64Zm7.17-13.31c-.75-4.55-1.47-8.94-2.2-13.33h-.5c-.71,4.41-1.43,8.82-2.16,13.33Z" transform="translate(-9.52 -82.81)"/>
      <path id="a-3" data-name="a" d="M244.4,172.63h-5.51c-.49-2.64-1-5.32-1.52-8.1h-6.51c-.48,2.66-1,5.35-1.46,8.11H224c.5-2.66,1-5.22,1.47-7.76,1.54-7.87,3.15-15.72,4.61-23.61.34-1.85,1-2.45,2.95-2.39,4.68.14,4.79,0,5.71,4.47,2,9.52,3.84,19.07,5.74,28.61A2.65,2.65,0,0,1,244.4,172.63Zm-7.79-13.26c-.79-4.68-1.53-9.12-2.27-13.56l-.45,0c-.71,4.47-1.43,8.93-2.16,13.52Z" transform="translate(-9.52 -82.81)"/>
      <path id="c" d="M121.05,149.3h-5.11c-.18-1.23-.28-2.4-.54-3.54-.37-1.62-1.25-2.79-3.12-2.69a2.85,2.85,0,0,0-2.85,3c-.24,2.88-.53,5.77-.51,8.66,0,3.61.26,7.23.5,10.84.11,1.76,1,3,2.92,3.09s2.84-1.16,3.14-2.89c.26-1.48.4-3,.61-4.61h4.62c1.28,4.18-.67,10.11-4.1,11.56-5.07,2.15-11.38,1.05-12.54-6.31a68.46,68.46,0,0,1,0-21.24,7.94,7.94,0,0,1,8.43-7c4.74.11,7.44,2.54,8,7.26C120.72,146.63,120.87,147.86,121.05,149.3Z" transform="translate(-9.52 -82.81)"/>
    </g>
    <path id="line1" d="M102.56,86.24V84h81.63v2.28Z" transform="translate(-9.52 -82.81)"/>
    <path id="line2" d="M184.26,131.9v2.3H102.63v-2.3Z" transform="translate(-9.52 -82.81)"/>
    <g id="start">
      <path id="r" d="M164.33,108.56c2.31,1.77,2.34,4.88,2.54,7.89.22,3.39.32,6.8.48,10.51a18,18,0,0,1-3.62-.09c-.43-.08-.93-1.17-1-1.81-.12-3.09-.05-6.19-.15-9.28-.11-3.53-1.38-4.71-4.61-4.81-1.46,0-1.79.51-1.77,1.82.06,3.89,0,7.77,0,11.66v2.37c-.73.07-1.36.11-2,.19-1.54.21-2-.41-2-2,.07-10.4,0-20.8,0-31.2V90.71a96.8,96.8,0,0,1,10.1.09,4.62,4.62,0,0,1,3.95,4.4,43.86,43.86,0,0,1,.05,8.8C166.25,105.46,165.14,106.84,164.33,108.56ZM156.27,106a11.27,11.27,0,0,0,3.23-.06c.95-.33,2.34-1.06,2.47-1.8a22.62,22.62,0,0,0,.15-6.57c-.22-1.68-3.81-2.91-5.31-2a1.27,1.27,0,0,0-.51.94C156.26,99.53,156.27,102.62,156.27,106Z" transform="translate(-9.52 -82.81)"/>
      <path id="s" d="M107.25,114.35c.08,1.85.09,3.48.25,5.1s.4,3.13,2.5,3.15c1.56,0,2.58-1.23,2.81-3.21a7.72,7.72,0,0,0-2.08-6.53c-1.53-1.63-3-3.28-4.5-5-3.73-4.41-3.7-9.39-1.83-14.48a5.44,5.44,0,0,1,5.47-3.77,5.72,5.72,0,0,1,5.61,3.6,15,15,0,0,1,1,8.16h-3.58c-.22-1.47-.35-2.83-.63-4.17A2.44,2.44,0,0,0,109.73,95c-1.54.09-2,1.29-2.23,2.6a6.17,6.17,0,0,0,1.73,5.25c1.27,1.43,2.6,2.8,3.93,4.17,4.59,4.77,4.92,10.41,3.14,16.35A6.18,6.18,0,0,1,110,128c-3,0-5.18-1.58-6.1-4.91a49.87,49.87,0,0,1-.95-6.61c-.24-1.75.53-2.41,2.25-2.17A15.7,15.7,0,0,0,107.25,114.35Z" transform="translate(-9.52 -82.81)"/>
      <path id="a-4" data-name="a" d="M138.27,90.65h5.89c1.79,12,3.58,24,5.39,36.19H145c-.31-2.25-.72-4.5-.88-6.77-.12-1.73-.72-2.54-2.54-2.3a23.67,23.67,0,0,1-3,0c-.29,2.17-.54,4.11-.82,6-.51,3.52-.94,3.79-4.72,2.85C134.71,114.75,136.47,102.8,138.27,90.65Zm4.85,21.78-1.76-14-.52,0-1.7,14Z" transform="translate(-9.52 -82.81)"/>
      <path id="t" d="M124.54,96.39h-5.13V90.7h14.41v5.62h-5v2.43c0,8.56,0,17.12,0,25.68,0,1.62,0,2.64-2.21,2.66-2.38,0-2.09-1.3-2.09-2.76q0-12.64,0-25.29Z" transform="translate(-9.52 -82.81)"/>
      <path id="t-2" data-name="t" d="M178.42,126.9h-4.24V96.5h-5V90.73h14.22v5.58h-5Z" transform="translate(-9.52 -82.81)"/>
    </g>
  </g>
  <g id="tm">
    <path id="t-3" data-name="t" d="M247.74,168h-1.61v-1.13h4.6V168h-1.64v4.84h-1.35Z" transform="translate(-9.52 -82.81)"/>
    <path id="m" d="M256.46,170.54c0-.72-.06-1.59-.06-2.46h0c-.19.76-.44,1.61-.67,2.32l-.72,2.33h-1.06l-.64-2.32c-.19-.7-.4-1.55-.54-2.33h0c0,.81-.06,1.73-.1,2.47l-.11,2.27h-1.25l.38-6h1.8l.59,2c.18.7.37,1.44.5,2.14h0c.17-.69.37-1.48.57-2.15l.63-2h1.77l.33,6h-1.33Z" transform="translate(-9.52 -82.81)"/>
  </g>
</svg>
