<svg id="twitter_icon" xmlns="http://www.w3.org/2000/svg" width="36.36" height="36.36" viewBox="0 0 36.36 36.36">
  <defs>
    <style>
      .cls-1 {
        fill: #344131;
      }

      .cls-2 {
        fill: #fff;
      }
    </style>
  </defs>
  <path id="circle" class="cls-1" d="M36.81,18.91A18.18,18.18,0,1,1,18.63.73h0A18.18,18.18,0,0,1,36.81,18.91Z" transform="translate(-0.45 -0.73)"/>
  <path id="bird" class="cls-2" d="M29.37,10.16a9.52,9.52,0,0,1-3,1.11A4.67,4.67,0,0,0,23,9.82a4.6,4.6,0,0,0-4.66,4.53,5.24,5.24,0,0,0,.12,1.11,13.33,13.33,0,0,1-9.61-4.8,4.54,4.54,0,0,0,1.44,6.12,4.72,4.72,0,0,1-2.11-.57v.06a4.62,4.62,0,0,0,3.74,4.5,5.06,5.06,0,0,1-1.23.16,5.12,5.12,0,0,1-.87-.08A4.65,4.65,0,0,0,14.17,24a9.5,9.5,0,0,1-5.79,2,8.17,8.17,0,0,1-1.11-.07A13.25,13.25,0,0,0,14.41,28,13.06,13.06,0,0,0,27.68,15.14v-.2c0-.2,0-.4,0-.59A9.37,9.37,0,0,0,30,12a9.19,9.19,0,0,1-2.68.73A4.67,4.67,0,0,0,29.37,10.16Z" transform="translate(-0.45 -0.73)"/>
</svg>
