<svg id="youtube_icon" xmlns="http://www.w3.org/2000/svg" width="36.14" height="36.14" viewBox="0 0 36.14 36.14">
  <defs>
    <style>
      .cls-1 {
        fill: #344131;
      }

      .cls-2 {
        fill: #fff;
      }
    </style>
  </defs>
  <path id="base_circle" data-name="base circle" class="cls-1" d="M36.7,18.91A18.07,18.07,0,1,1,18.63.84h0A18.07,18.07,0,0,1,36.7,18.91Z" transform="translate(-0.56 -0.84)"/>
  <path id="inner_rectangle" data-name="inner rectangle" class="cls-2" d="M11.38,27.74a3.78,3.78,0,0,1-2.53-1,5.39,5.39,0,0,1-.92-2.4C7.79,23,7.71,21.7,7.7,20.4V18.56c0-1.3.09-2.61.23-3.91a5.39,5.39,0,0,1,.92-2.4,3.17,3.17,0,0,1,2.3-1c3.22-.25,8-.25,8-.25h0s4.83,0,8.05.25a3.21,3.21,0,0,1,2.3,1,5.33,5.33,0,0,1,.91,2.4,36.46,36.46,0,0,1,.23,3.91V20.4c0,1.3-.09,2.61-.23,3.91a5.5,5.5,0,0,1-.91,2.4,3.21,3.21,0,0,1-2.3,1C24,28,19.2,28,19.2,28S13.22,27.93,11.38,27.74Z" transform="translate(-0.56 -0.84)"/>
  <path id="inner_triangle" data-name="inner triangle" class="cls-1" d="M25,19.82l-9.2,4.57.34-9.77Z" transform="translate(-0.56 -0.84)"/>
</svg>
